<?xml version="1.0" encoding="UTF-8"?>
<!DOCTYPE svg PUBLIC "-//W3C//DTD SVG 1.1//EN" "http://www.w3.org/Graphics/SVG/1.1/DTD/svg11.dtd">
<!-- Creator: CorelDRAW X6 -->
<svg xmlns="http://www.w3.org/2000/svg" xml:space="preserve" width="13.6781mm" height="17.4246mm" version="1.1" style="shape-rendering:geometricPrecision; text-rendering:geometricPrecision; image-rendering:optimizeQuality; fill-rule:evenodd; clip-rule:evenodd"
viewBox="0 0 355 452"
 xmlns:xlink="http://www.w3.org/1999/xlink">
 <defs>
  <style type="text/css">
   <![CDATA[
    .fil0 {fill:#C29749}
    .fil1 {fill:#C29749;fill-rule:nonzero}
   ]]>
  </style>
 </defs>
 <g id="Слой_x0020_1">
  <metadata id="CorelCorpID_0Corel-Layer"/>
  <path class="fil0" d="M140 415c0,-6 2,-12 5,-16 0,-1 0,-1 1,-2 3,-4 7,-7 12,-9 7,-3 15,-2 22,1 1,1 3,2 4,3 6,4 9,10 11,16 1,7 1,13 -2,19 -1,2 -1,3 -2,4 -2,3 -3,4 -5,6 -5,4 -12,7 -19,7 -8,0 -14,-4 -19,-9 -4,-4 -8,-12 -8,-20zm81 -36c-1,1 -1,0 -1,2 0,23 0,47 0,70l9 0 0 -20c1,0 3,0 5,0 2,0 3,0 4,0 0,0 1,1 1,2l9 15c1,1 2,2 2,3l10 0c-1,-1 -1,-2 -2,-3 -3,-6 -7,-12 -10,-18 -1,-1 -2,-2 -2,-3 3,-1 5,-3 7,-6 2,-2 3,-4 4,-7 2,-6 2,-11 1,-16 -2,-7 -8,-14 -15,-17 -3,-1 -6,-2 -10,-2 -4,0 -8,0 -12,0zm59 72l8 0 0 -72 -8 0 0 72zm-208 -63l30 0c0,1 -11,22 -13,25l-5 10c-1,1 -2,3 -3,4l-7 14c0,1 -1,1 -1,2l-4 8 46 0 0 -9 -32 0c0,0 2,-3 2,-3 1,-1 1,-2 1,-2l6 -10c2,-4 6,-12 8,-16l14 -26c0,-1 3,-5 3,-6l-45 0 0 9zm160 35l-3 0 0 -35 4 0c9,0 17,7 17,17 0,10 -8,18 -18,18zm-65 -45l2 0c5,0 10,1 14,3 7,4 11,7 15,13 4,6 6,14 6,21 0,12 -6,23 -15,30l-4 3c-1,0 -1,0 -2,1 -6,3 -15,4 -23,2 -26,-6 -38,-38 -21,-59 3,-3 3,-4 6,-6 0,0 1,-1 2,-1 5,-5 13,-7 20,-7z"/>
  <polygon class="fil0" points="171,108 178,108 178,125 171,125 "/>
  <polygon class="fil0" points="171,216 178,216 178,232 171,232 "/>
  <path class="fil0" d="M148 124l1 0 56 0 1 0c1,0 2,0 2,1 1,1 1,1 0,2l-42 84c-1,0 -1,1 0,2 0,1 1,1 2,1l24 0 0 0c3,0 4,-2 4,-5l0 0 0 0 0 0c0,-4 3,-7 7,-7 4,0 7,3 7,7 0,4 -4,7 -7,7l0 0 -21 0 -41 0 0 0 -2 0 44 -87c1,0 1,-1 0,-2 0,-1 -1,-1 -2,-1l-21 0c-3,0 -4,2 -4,5 0,4 -4,7 -8,7 -3,0 -7,-3 -7,-7 0,-4 5,-7 7,-7z"/>
  <path class="fil1" d="M168 269c0,-3 2,-5 4,-5 3,0 5,2 6,4 0,3 -2,5 -5,5 -2,1 -5,-1 -5,-4z"/>
  <path class="fil1" d="M137 260c0,-2 2,-4 4,-4 2,0 4,2 4,4 1,2 -1,4 -4,4 -2,0 -4,-1 -4,-4z"/>
  <path class="fil1" d="M148 263c0,-1 1,-3 3,-3 1,0 3,2 3,3 0,2 -2,3 -3,3 -2,0 -3,-1 -3,-3z"/>
  <path class="fil1" d="M113 253c1,-2 3,-4 5,-3 2,1 3,3 3,5 -1,2 -3,3 -5,2 -2,0 -3,-2 -3,-4z"/>
  <path class="fil1" d="M107 240c0,-3 3,-4 5,-3 3,0 4,3 3,5 0,3 -3,4 -5,3 -3,0 -4,-3 -3,-5z"/>
  <path class="fil1" d="M79 318c0,-1 1,-3 3,-3 2,0 3,1 3,3 0,2 -1,3 -3,4 -2,0 -3,-2 -3,-4z"/>
  <path class="fil1" d="M115 277c0,-3 2,-5 4,-5 3,0 5,2 5,4 0,3 -2,5 -4,5 -3,0 -5,-2 -5,-4z"/>
  <path class="fil1" d="M153 272c0,-3 1,-4 3,-5 3,0 4,2 5,4 0,2 -2,4 -4,4 -2,0 -4,-1 -4,-3z"/>
  <path class="fil1" d="M129 272c0,-2 2,-3 4,-3 2,0 3,1 3,3 0,2 -1,4 -3,4 -2,0 -4,-2 -4,-4z"/>
  <path class="fil1" d="M171 282c0,-2 1,-4 3,-4 2,0 4,2 4,4 0,2 -1,3 -3,3 -2,1 -4,-1 -4,-3z"/>
  <path class="fil1" d="M110 263c0,-2 2,-3 4,-2 2,0 3,2 3,4 -1,2 -3,3 -5,2 -2,0 -3,-2 -2,-4z"/>
  <path class="fil1" d="M158 280c0,-3 2,-5 4,-5 3,0 5,2 5,4 0,2 -2,4 -4,5 -2,0 -4,-2 -5,-4z"/>
  <path class="fil1" d="M87 302c0,-1 1,-2 2,-2 2,0 3,1 3,2 0,2 -1,3 -3,3 -1,0 -2,-1 -2,-3z"/>
  <path class="fil1" d="M65 290c0,-2 1,-3 2,-3 2,0 3,1 3,2 0,2 -1,3 -2,3 -2,0 -3,-1 -3,-2z"/>
  <path class="fil1" d="M135 290c0,-2 2,-4 4,-4 2,0 4,2 4,4 0,2 -1,4 -4,4 -2,0 -4,-2 -4,-4z"/>
  <path class="fil1" d="M148 290c0,-2 1,-4 4,-5 3,0 5,2 5,5 0,2 -2,4 -4,5 -3,0 -5,-2 -5,-5z"/>
  <path class="fil1" d="M105 289c-2,-1 -2,-4 0,-6 1,-1 3,-2 5,0 2,1 2,4 1,5 -1,2 -4,2 -6,1z"/>
  <path class="fil1" d="M128 299c1,2 0,3 -2,3 -1,1 -2,0 -3,-2 0,-1 1,-2 2,-3 2,0 3,1 3,2z"/>
  <path class="fil1" d="M83 293c0,1 -2,2 -3,1 -1,-1 -2,-2 -1,-4 1,-1 2,-1 4,-1 1,1 1,3 0,4z"/>
  <path class="fil1" d="M131 287c1,2 -1,4 -3,5 -2,0 -4,-1 -4,-3 -1,-2 0,-4 3,-5 2,0 4,1 4,3z"/>
  <path class="fil1" d="M160 296c0,-2 2,-4 4,-4 2,0 4,1 4,3 0,3 -1,5 -3,5 -3,0 -4,-2 -5,-4z"/>
  <path class="fil1" d="M135 303c0,-3 2,-5 4,-5 3,-1 5,1 5,4 1,2 -1,5 -4,5 -2,0 -5,-2 -5,-4z"/>
  <path class="fil1" d="M148 330c-1,-1 -2,-3 -1,-4 1,-2 3,-2 5,-1 1,1 2,3 1,4 -1,2 -3,2 -5,1z"/>
  <path class="fil1" d="M141 319c-1,0 -2,-2 -1,-4 1,-1 3,-2 5,-1 1,1 1,3 0,5 -1,1 -3,1 -4,0z"/>
  <path class="fil1" d="M151 309c-2,-1 -2,-4 -1,-5 1,-2 4,-3 5,-1 2,1 3,3 1,5 -1,2 -3,2 -5,1z"/>
  <path class="fil1" d="M121 330c-2,-1 -2,-3 -1,-5 1,-1 3,-2 5,-1 1,1 1,3 0,5 -1,1 -3,2 -4,1z"/>
  <path class="fil1" d="M112 296c-1,-1 -2,-3 -1,-4 1,-2 3,-2 5,-1 1,1 2,3 1,5 -1,1 -3,1 -5,0z"/>
  <path class="fil1" d="M107 325c-2,-1 -2,-3 -1,-4 1,-2 3,-2 5,-1 1,1 1,3 0,4 -1,2 -3,2 -4,1z"/>
  <path class="fil1" d="M80 265c-1,-2 1,-4 2,-4 2,0 4,1 4,3 1,2 -1,3 -3,4 -1,0 -3,-1 -3,-3z"/>
  <path class="fil1" d="M94 291c0,-2 1,-4 3,-4 2,0 3,1 4,3 0,2 -1,3 -3,3 -2,1 -3,0 -4,-2z"/>
  <path class="fil1" d="M125 316c-2,-1 -2,-3 -1,-5 1,-2 3,-2 5,-1 2,1 2,3 1,5 -1,2 -4,2 -5,1z"/>
  <path class="fil1" d="M168 339c-1,-1 -1,-3 -1,-4 1,-2 3,-2 4,-1 2,1 2,3 1,4 -1,1 -2,2 -4,1z"/>
  <path class="fil1" d="M101 308c-1,-1 -1,-3 0,-4 1,-1 2,-1 4,-1 1,1 1,3 0,4 -1,2 -3,2 -4,1z"/>
  <path class="fil1" d="M111 304c0,-2 2,-4 4,-4 2,0 3,1 3,3 0,3 -1,4 -3,4 -2,0 -4,-1 -4,-3z"/>
  <path class="fil1" d="M170 319c-1,-1 -2,-3 -1,-4 1,-2 3,-2 5,-1 1,1 2,3 1,4 -1,2 -3,2 -5,1z"/>
  <path class="fil1" d="M168 308c-2,-1 -2,-3 -1,-5 1,-2 3,-2 4,-1 2,1 2,3 1,5 -1,1 -3,2 -4,1z"/>
  <path class="fil1" d="M82 283c-1,-2 -1,-3 0,-4 2,-1 4,-1 5,0 1,2 0,4 -1,5 -2,1 -3,0 -4,-1z"/>
  <path class="fil1" d="M101 274c-2,-2 -1,-4 0,-5 2,-1 5,-1 6,1 1,1 1,4 -1,5 -2,1 -4,1 -5,-1z"/>
  <path class="fil1" d="M89 266c1,-2 3,-4 5,-3 2,1 3,3 3,5 -1,2 -3,3 -5,2 -2,0 -3,-2 -3,-4z"/>
  <path class="fil1" d="M164 268c-2,0 -3,-2 -2,-3 0,-1 2,-2 3,-2 1,1 2,2 2,3 -1,2 -2,3 -3,2z"/>
  <path class="fil1" d="M81 161c2,0 4,2 5,4 0,3 -2,5 -5,5 -2,1 -4,-1 -5,-4 0,-2 2,-5 5,-5z"/>
  <path class="fil1" d="M86 232c2,0 4,2 4,4 0,2 -1,4 -4,4 -2,0 -4,-1 -4,-4 0,-2 1,-4 4,-4z"/>
  <path class="fil1" d="M50 291c2,0 3,2 4,3 0,2 -2,4 -3,4 -2,0 -4,-1 -4,-3 0,-2 1,-3 3,-4z"/>
  <path class="fil1" d="M41 265c1,0 3,1 3,3 0,2 -1,3 -3,3 -1,0 -3,-1 -3,-3 0,-1 1,-3 3,-3z"/>
  <path class="fil1" d="M8 192c2,0 3,1 3,3 0,2 -1,3 -2,3 -2,0 -3,-1 -4,-3 0,-1 1,-3 3,-3z"/>
  <path class="fil1" d="M54 262c3,0 4,1 5,3 0,3 -2,4 -4,5 -2,0 -4,-2 -4,-4 0,-2 1,-4 3,-4z"/>
  <path class="fil1" d="M79 206c3,0 5,1 5,4 0,3 -1,5 -4,5 -3,0 -5,-2 -5,-4 0,-3 2,-5 4,-5z"/>
  <path class="fil1" d="M103 230c2,0 4,2 4,4 0,2 -1,3 -3,4 -2,0 -4,-2 -4,-4 0,-2 1,-3 3,-4z"/>
  <path class="fil1" d="M118 243c2,0 3,1 3,2 0,2 -1,3 -2,4 -2,0 -3,-1 -3,-3 -1,-2 1,-3 2,-3z"/>
  <path class="fil1" d="M90 209c2,-1 4,1 4,4 1,2 -1,4 -3,4 -3,0 -5,-1 -5,-4 0,-2 2,-4 4,-4z"/>
  <path class="fil1" d="M98 222c2,0 4,2 5,4 0,3 -2,5 -4,5 -3,0 -5,-2 -5,-4 0,-2 2,-5 4,-5z"/>
  <path class="fil1" d="M98 240c2,0 5,2 5,4 0,3 -2,5 -4,5 -3,0 -5,-1 -5,-4 0,-2 2,-4 4,-5z"/>
  <path class="fil1" d="M63 195c3,-1 5,1 5,4 0,3 -2,5 -4,5 -3,0 -5,-2 -5,-4 -1,-3 1,-5 4,-5z"/>
  <path class="fil1" d="M16 233c1,0 2,1 3,2 0,1 -1,3 -3,3 -1,0 -2,-1 -3,-2 0,-2 1,-3 3,-3z"/>
  <path class="fil1" d="M73 217c2,0 3,1 3,2 0,2 -1,3 -2,3 -2,0 -3,-1 -3,-2 0,-2 1,-3 2,-3z"/>
  <path class="fil1" d="M123 264c2,0 3,1 3,2 0,1 -1,3 -2,3 -2,0 -3,-1 -3,-3 0,-1 1,-2 2,-2z"/>
  <path class="fil1" d="M220 252c2,0 3,1 3,3 0,1 -1,2 -2,3 -2,0 -3,-1 -3,-3 0,-1 1,-2 2,-3z"/>
  <path class="fil1" d="M61 219c1,-2 4,-2 6,-1 1,1 2,3 1,5 -2,2 -4,2 -6,1 -2,-1 -2,-3 -1,-5z"/>
  <path class="fil1" d="M76 245c2,-2 4,-3 6,-1 2,1 2,3 1,5 -1,2 -4,3 -6,1 -1,-1 -2,-3 -1,-5z"/>
  <path class="fil1" d="M71 238c2,1 3,2 2,4 0,2 -2,3 -4,2 -1,0 -2,-2 -2,-4 1,-2 3,-3 4,-2z"/>
  <path class="fil1" d="M65 206c2,-2 4,-3 6,-1 1,1 2,3 1,5 -1,2 -4,2 -6,1 -1,-1 -2,-4 -1,-5z"/>
  <path class="fil1" d="M69 228c1,-2 4,-3 6,-2 2,2 3,5 2,7 -2,2 -5,3 -7,1 -2,-1 -2,-4 -1,-6z"/>
  <path class="fil1" d="M56 181c1,-2 4,-2 6,-1 1,1 2,4 1,6 -2,1 -4,2 -6,1 -2,-2 -2,-4 -1,-6z"/>
  <path class="fil1" d="M65 177c1,-2 4,-3 6,-1 1,1 2,3 0,5 -1,2 -3,2 -5,1 -2,-1 -2,-4 -1,-5z"/>
  <path class="fil1" d="M67 185c1,-2 4,-2 6,-1 2,1 2,4 1,6 -1,2 -4,2 -6,1 -2,-1 -2,-4 -1,-6z"/>
  <path class="fil1" d="M81 175c2,0 4,2 5,4 0,2 -2,4 -4,5 -3,0 -5,-2 -5,-4 0,-3 2,-5 4,-5z"/>
  <path class="fil1" d="M27 193c1,-2 3,-2 4,-1 2,1 2,3 1,4 -1,2 -3,2 -5,1 -1,-1 -1,-3 0,-4z"/>
  <path class="fil1" d="M60 230c3,0 5,2 5,4 0,3 -1,5 -4,5 -2,0 -5,-2 -5,-4 0,-3 2,-5 4,-5z"/>
  <path class="fil1" d="M86 250c1,-1 3,-2 5,-1 1,1 2,3 0,5 -1,1 -3,2 -4,1 -2,-1 -2,-3 -1,-5z"/>
  <path class="fil1" d="M12 211c1,-1 3,-1 4,0 1,0 2,2 1,4 -1,1 -3,1 -4,0 -1,-1 -2,-2 -1,-4z"/>
  <path class="fil1" d="M33 248c1,-2 3,-2 4,-1 2,1 2,3 1,4 -1,1 -3,2 -4,1 -1,-1 -1,-3 -1,-4z"/>
  <path class="fil1" d="M46 232c1,-1 3,-1 4,-1 2,2 2,4 1,5 -1,1 -3,2 -4,1 -2,-1 -2,-3 -1,-5z"/>
  <path class="fil1" d="M29 217c1,-2 3,-2 4,-1 1,1 2,3 1,4 -1,1 -3,2 -4,1 -1,-1 -2,-3 -1,-4z"/>
  <path class="fil1" d="M45 217c1,-2 3,-2 4,-1 1,1 2,3 1,4 -1,1 -3,2 -4,1 -2,-1 -2,-3 -1,-4z"/>
  <path class="fil1" d="M58 248c1,-1 3,-1 4,0 2,1 2,3 1,4 -1,2 -3,2 -4,1 -2,-1 -2,-3 -1,-5z"/>
  <path class="fil1" d="M5 162c2,-2 4,-2 5,-1 2,1 2,3 1,5 -1,1 -3,2 -5,0 -1,-1 -2,-3 -1,-4z"/>
  <path class="fil1" d="M27 167c1,-2 3,-2 5,-1 1,1 2,3 1,4 -1,2 -3,2 -5,1 -1,-1 -2,-3 -1,-4z"/>
  <path class="fil1" d="M35 203c1,-2 3,-2 4,-1 2,1 2,3 1,4 -1,2 -3,2 -4,1 -2,-1 -2,-3 -1,-4z"/>
  <path class="fil1" d="M47 194c1,-1 3,-2 5,-1 1,1 2,3 1,5 -1,1 -3,2 -5,1 -1,-1 -2,-3 -1,-5z"/>
  <path class="fil1" d="M55 210c1,-1 3,-1 5,0 1,1 2,3 1,4 -1,2 -3,2 -5,1 -1,-1 -2,-3 -1,-5z"/>
  <path class="fil1" d="M38 177c1,-2 3,-3 5,-1 2,1 2,3 1,5 -1,2 -4,2 -5,1 -2,-1 -3,-4 -1,-5z"/>
  <path class="fil1" d="M51 168c3,-1 5,1 5,4 0,2 -2,4 -4,5 -2,0 -5,-2 -5,-5 0,-2 2,-4 4,-4z"/>
  <path class="fil1" d="M72 272c2,0 3,2 2,4 0,2 -2,3 -4,2 -2,0 -3,-2 -2,-4 0,-2 2,-3 4,-2z"/>
  <path class="fil1" d="M181 295c1,-3 -1,-5 -4,-5 -3,0 -5,2 -5,4 0,3 2,5 4,5 3,1 5,-1 5,-4z"/>
  <path class="fil1" d="M216 260c0,-2 -1,-4 -4,-4 -2,0 -4,1 -4,4 0,2 2,4 4,4 2,0 4,-2 4,-4z"/>
  <path class="fil1" d="M204 263c0,-1 -1,-3 -3,-3 -1,0 -3,2 -3,3 0,2 2,3 3,3 2,0 3,-1 3,-3z"/>
  <path class="fil1" d="M251 244c-1,-3 -3,-4 -6,-4 -2,1 -3,4 -3,6 1,2 3,4 6,3 2,-1 4,-3 3,-5z"/>
  <path class="fil1" d="M273 318c0,-1 -1,-3 -3,-3 -2,0 -3,1 -3,3 0,2 1,3 3,4 2,0 3,-2 3,-4z"/>
  <path class="fil1" d="M237 277c0,-3 -2,-5 -4,-5 -3,0 -5,2 -5,4 0,3 2,5 4,5 3,0 5,-2 5,-4z"/>
  <path class="fil1" d="M192 283c0,-3 -2,-4 -4,-5 -2,0 -4,2 -4,4 0,2 1,4 3,4 3,0 4,-1 5,-3z"/>
  <path class="fil1" d="M232 251c0,-2 -1,-3 -3,-4 -2,0 -4,2 -4,4 0,2 1,3 3,4 2,0 4,-2 4,-4z"/>
  <path class="fil1" d="M255 254c-1,-2 -3,-3 -5,-3 -2,1 -3,3 -2,5 0,2 2,3 4,3 2,-1 3,-3 3,-5z"/>
  <path class="fil1" d="M203 279c1,-2 -1,-3 -2,-3 -2,-1 -4,1 -4,2 0,2 1,4 3,4 2,0 3,-1 3,-3z"/>
  <path class="fil1" d="M231 266c0,-1 -2,-2 -3,-2 -1,0 -3,1 -3,2 0,2 1,3 3,3 1,0 2,-1 3,-3z"/>
  <path class="fil1" d="M221 267c0,-1 -1,-2 -3,-2 -1,0 -2,1 -2,2 0,2 1,3 2,3 1,0 3,-1 3,-3z"/>
  <path class="fil1" d="M266 302c0,-1 -2,-2 -3,-2 -1,0 -3,1 -3,2 0,2 1,3 3,3 1,0 2,-1 3,-3z"/>
  <path class="fil1" d="M287 290c0,-2 -1,-3 -2,-3 -2,0 -3,1 -3,2 0,2 1,3 2,3 2,0 3,-1 3,-2z"/>
  <path class="fil1" d="M204 290c0,-2 -1,-4 -4,-5 -2,0 -5,2 -5,5 0,2 2,4 4,5 3,0 5,-2 5,-5z"/>
  <path class="fil1" d="M247 289c2,-1 2,-4 1,-6 -2,-1 -4,-2 -6,0 -2,1 -2,4 -1,5 2,2 4,2 6,1z"/>
  <path class="fil1" d="M242 269c-1,-1 -2,-2 -4,-2 -1,1 -2,2 -2,4 1,1 2,2 4,2 1,-1 2,-2 2,-4z"/>
  <path class="fil1" d="M224 299c-1,2 0,3 2,3 1,1 2,0 3,-2 0,-1 -1,-2 -2,-3 -2,0 -3,1 -3,2z"/>
  <path class="fil1" d="M269 293c0,1 2,2 3,1 1,-1 2,-2 1,-4 -1,-1 -2,-1 -3,-1 -2,1 -2,3 -1,4z"/>
  <path class="fil1" d="M218 287c0,2 1,4 3,5 2,0 4,-1 5,-3 0,-2 -1,-4 -3,-5 -2,0 -4,1 -5,3z"/>
  <path class="fil1" d="M210 271c0,-3 -2,-5 -5,-5 -2,0 -4,2 -4,4 0,3 2,5 4,5 3,0 5,-2 5,-4z"/>
  <path class="fil1" d="M196 296c0,-2 -2,-4 -4,-4 -2,0 -4,1 -4,3 0,3 1,5 3,5 2,0 4,-2 5,-4z"/>
  <path class="fil1" d="M217 303c0,-3 -2,-5 -4,-5 -3,-1 -5,1 -5,4 -1,2 1,5 4,5 2,0 5,-2 5,-4z"/>
  <path class="fil1" d="M209 338c1,-1 1,-3 0,-5 -1,-1 -3,-2 -4,-1 -2,1 -2,3 -1,5 1,1 3,2 5,1z"/>
  <path class="fil1" d="M211 319c2,0 2,-2 1,-4 -1,-1 -3,-2 -5,-1 -1,1 -1,3 0,5 1,1 3,1 4,0z"/>
  <path class="fil1" d="M201 309c2,-1 2,-4 1,-5 -1,-2 -4,-3 -5,-1 -2,1 -3,3 -1,5 1,2 3,2 5,1z"/>
  <path class="fil1" d="M231 330c2,-1 2,-3 1,-5 -1,-1 -3,-2 -5,-1 -1,1 -1,3 0,5 1,1 3,2 4,1z"/>
  <path class="fil1" d="M240 296c1,-1 2,-3 1,-4 -1,-2 -3,-2 -5,-1 -1,1 -2,3 -1,5 1,1 3,1 5,0z"/>
  <path class="fil1" d="M245 325c2,-1 2,-3 1,-4 -1,-2 -3,-2 -5,-1 -1,1 -1,3 0,4 1,2 3,2 4,1z"/>
  <path class="fil1" d="M262 278c0,-2 -1,-3 -3,-4 -2,0 -3,1 -4,3 0,2 1,4 3,4 2,0 4,-1 4,-3z"/>
  <path class="fil1" d="M272 265c1,-2 -1,-4 -2,-4 -2,0 -4,1 -4,3 -1,2 1,3 3,4 1,0 3,-1 3,-3z"/>
  <path class="fil1" d="M258 291c0,-2 -1,-4 -3,-4 -2,0 -3,1 -4,3 0,2 1,3 3,3 2,1 3,0 4,-2z"/>
  <path class="fil1" d="M227 316c2,-1 3,-3 1,-5 -1,-2 -3,-2 -5,-1 -2,1 -2,3 -1,5 1,2 4,2 5,1z"/>
  <path class="fil1" d="M187 330c2,-1 2,-3 1,-4 -1,-2 -3,-2 -4,-1 -1,1 -2,3 -1,4 1,1 3,2 4,1z"/>
  <path class="fil1" d="M251 308c1,-1 1,-3 0,-4 -1,-1 -2,-1 -4,-1 -1,1 -1,3 0,4 1,2 3,2 4,1z"/>
  <path class="fil1" d="M241 304c0,-2 -1,-4 -4,-4 -2,0 -3,1 -3,3 0,3 1,4 3,4 2,0 4,-1 4,-3z"/>
  <path class="fil1" d="M190 318c1,-1 1,-3 0,-5 -1,-1 -3,-2 -4,-1 -1,1 -2,3 -1,5 1,1 3,2 5,1z"/>
  <path class="fil1" d="M184 308c2,-1 2,-3 1,-5 -1,-2 -3,-2 -4,-1 -2,1 -2,3 -1,5 1,1 3,2 4,1z"/>
  <path class="fil1" d="M249 278c0,-2 -1,-4 -3,-4 -2,0 -3,1 -4,3 0,2 1,3 3,4 2,0 4,-1 4,-3z"/>
  <path class="fil1" d="M271 283c1,-2 0,-3 -1,-4 -2,-1 -4,-1 -5,0 -1,2 0,4 1,5 2,1 4,0 5,-1z"/>
  <path class="fil1" d="M252 271c2,-2 1,-4 -1,-5 -1,-2 -4,-1 -5,0 -1,2 -1,5 1,6 2,1 4,1 5,-1z"/>
  <path class="fil1" d="M263 263c-1,-2 -3,-3 -5,-3 -2,1 -3,3 -2,5 0,2 2,3 4,3 2,-1 4,-3 3,-5z"/>
  <path class="fil1" d="M302 291c-2,0 -3,2 -3,3 -1,2 1,4 2,4 2,0 4,-1 4,-3 0,-2 -1,-3 -3,-4z"/>
  <path class="fil1" d="M311 265c-1,0 -3,1 -3,3 0,2 1,3 3,3 2,0 3,-1 3,-3 0,-1 -1,-3 -3,-3z"/>
  <path class="fil1" d="M349 192c-2,0 -3,1 -4,3 0,1 2,3 3,3 2,0 3,-1 3,-3 0,-2 -1,-3 -2,-3z"/>
  <path class="fil1" d="M298 262c-2,0 -4,1 -5,3 0,3 2,4 4,5 2,0 4,-2 4,-4 0,-2 -1,-4 -3,-4z"/>
  <path class="fil1" d="M284 193c-2,0 -4,2 -5,4 0,3 2,5 5,5 2,1 4,-1 5,-4 0,-2 -2,-5 -5,-5z"/>
  <path class="fil1" d="M249 230c-2,0 -4,2 -4,4 0,2 1,3 3,4 2,0 4,-2 4,-4 0,-2 -1,-3 -3,-4z"/>
  <path class="fil1" d="M268 216c-2,0 -4,1 -4,3 -1,2 1,4 3,4 2,1 4,-1 4,-3 0,-2 -1,-4 -3,-4z"/>
  <path class="fil1" d="M270 188c-2,-1 -4,1 -4,3 0,2 1,4 3,4 2,0 4,-2 4,-4 0,-2 -1,-3 -3,-3z"/>
  <path class="fil1" d="M237 242c-2,0 -3,1 -3,2 -1,2 1,3 2,4 2,0 3,-1 3,-3 0,-2 -1,-3 -2,-3z"/>
  <path class="fil1" d="M279 228c-1,0 -3,1 -3,3 0,1 1,3 3,3 1,0 3,-1 3,-3 0,-1 -1,-3 -3,-3z"/>
  <path class="fil1" d="M263 209c-2,-1 -4,1 -4,4 0,2 1,4 4,4 2,0 4,-1 4,-4 0,-2 -1,-4 -4,-4z"/>
  <path class="fil1" d="M257 221c-3,-1 -5,1 -5,4 0,2 2,4 4,4 2,0 4,-1 5,-4 0,-2 -2,-4 -4,-4z"/>
  <path class="fil1" d="M295 190c-2,0 -5,2 -5,4 0,3 2,5 4,5 3,1 5,-1 5,-4 1,-2 -1,-5 -4,-5z"/>
  <path class="fil1" d="M340 229c-2,0 -3,1 -3,3 0,1 1,2 2,2 2,1 3,0 3,-2 0,-1 -1,-2 -2,-3z"/>
  <path class="fil1" d="M291 219c-1,-2 -4,-2 -6,-1 -1,1 -2,3 -1,5 2,2 4,2 6,1 2,-1 2,-3 1,-5z"/>
  <path class="fil1" d="M310 193c-1,-2 -4,-3 -6,-1 -1,1 -2,3 -1,5 2,2 4,2 6,1 2,-1 2,-4 1,-5z"/>
  <path class="fil1" d="M274 241c-1,-2 -4,-2 -5,-1 -2,1 -3,4 -1,6 1,1 3,2 5,1 2,-2 2,-4 1,-6z"/>
  <path class="fil1" d="M281 238c-2,1 -3,2 -2,4 0,2 2,3 4,2 2,0 2,-2 2,-4 -1,-2 -3,-3 -4,-2z"/>
  <path class="fil1" d="M35 133c-2,0 -3,2 -2,3 0,2 2,3 4,2 1,0 2,-2 2,-3 -1,-2 -3,-3 -4,-2z"/>
  <path class="fil1" d="M96 119c-1,1 -2,2 -2,4 1,1 2,2 4,2 1,-1 2,-2 2,-4 -1,-1 -2,-2 -4,-2z"/>
  <path class="fil1" d="M286 208c-1,-1 -3,-2 -5,-1 -2,2 -2,4 -1,6 1,1 4,2 5,1 2,-2 3,-4 1,-6z"/>
  <path class="fil1" d="M280 218c-1,-2 -4,-2 -6,-1 -2,2 -3,4 -1,7 1,2 4,2 6,1 2,-2 3,-5 1,-7z"/>
  <path class="fil1" d="M298 181c-1,-2 -4,-2 -6,-1 -1,1 -2,4 -1,6 2,1 4,2 6,1 2,-2 2,-4 1,-6z"/>
  <path class="fil1" d="M305 168c-1,-2 -4,-2 -5,-1 -2,1 -3,3 -1,5 1,2 3,2 5,1 2,-1 2,-3 1,-5z"/>
  <path class="fil1" d="M285 185c-1,-2 -4,-2 -6,-1 -2,1 -2,4 -1,6 1,2 4,2 6,1 2,-1 2,-4 1,-6z"/>
  <path class="fil1" d="M273 174c-3,0 -5,2 -5,4 0,2 2,4 4,5 2,0 5,-2 5,-4 0,-3 -2,-5 -4,-5z"/>
  <path class="fil1" d="M332 190c-1,-1 -3,-2 -4,-1 -2,1 -2,3 -1,5 1,1 3,2 4,1 2,-1 2,-3 1,-5z"/>
  <path class="fil1" d="M292 230c-3,0 -5,2 -5,4 0,3 2,5 4,5 2,0 5,-2 5,-4 0,-3 -2,-5 -4,-5z"/>
  <path class="fil1" d="M266 250c-1,-1 -3,-2 -5,-1 -1,1 -1,3 0,5 1,1 3,2 4,1 2,-1 2,-3 1,-5z"/>
  <path class="fil1" d="M279 261c-1,-1 -2,-2 -4,-1 -1,1 -1,3 0,4 0,1 2,2 3,1 2,-1 2,-3 1,-4z"/>
  <path class="fil1" d="M336 211c-1,-2 -3,-2 -4,-1 -2,1 -2,3 -1,4 1,1 3,2 4,1 1,-1 1,-3 1,-4z"/>
  <path class="fil1" d="M319 248c-1,-2 -3,-2 -4,-1 -2,1 -2,3 -1,4 1,1 3,2 4,1 1,-1 2,-3 1,-4z"/>
  <path class="fil1" d="M306 232c-1,-1 -3,-1 -4,-1 -2,2 -2,4 -1,5 1,1 3,2 4,1 2,-1 2,-3 1,-5z"/>
  <path class="fil1" d="M323 217c-1,-2 -3,-2 -4,-1 -1,1 -2,3 -1,4 1,1 3,2 4,1 2,-1 2,-3 1,-4z"/>
  <path class="fil1" d="M305 204c-1,-1 -3,-2 -4,-1 -2,1 -2,3 -1,4 1,2 2,2 4,1 1,-1 1,-3 1,-4z"/>
  <path class="fil1" d="M307 217c-1,-2 -3,-2 -4,-1 -1,1 -2,3 -1,4 1,1 3,2 5,1 1,-1 1,-3 0,-4z"/>
  <path class="fil1" d="M276 253c-1,-2 -3,-2 -5,-1 -1,1 -2,3 -1,4 1,2 3,2 5,1 1,-1 2,-3 1,-4z"/>
  <path class="fil1" d="M294 248c-1,-1 -3,-1 -4,0 -2,1 -2,3 -1,4 1,2 3,2 4,1 2,-1 2,-3 1,-5z"/>
  <path class="fil1" d="M350 166c-1,-1 -3,-1 -5,0 -1,1 -2,3 -1,4 1,2 4,2 5,1 2,-1 2,-3 1,-5z"/>
  <path class="fil1" d="M317 203c-1,-2 -3,-2 -4,-1 -2,1 -2,3 -1,4 1,2 3,2 4,1 2,-1 2,-3 1,-4z"/>
  <path class="fil1" d="M320 190c-1,-1 -3,-2 -4,-1 -2,1 -2,3 -1,5 1,1 3,2 5,1 1,-1 2,-3 0,-5z"/>
  <path class="fil1" d="M310 182c-1,-2 -3,-2 -5,-1 -1,1 -2,3 -1,4 1,2 3,2 5,1 1,-1 2,-3 1,-4z"/>
  <path class="fil1" d="M297 210c-1,-1 -3,-1 -5,0 -1,1 -2,3 -1,4 1,2 3,2 5,1 1,-1 2,-3 1,-5z"/>
  <path class="fil1" d="M321 172c-1,-2 -4,-3 -5,-1 -2,1 -3,3 -1,5 1,2 3,2 5,1 2,-1 2,-4 1,-5z"/>
  <path class="fil1" d="M280 272c-2,0 -3,2 -2,4 0,2 2,3 4,2 2,0 3,-2 2,-4 0,-2 -2,-3 -4,-2z"/>
  <path class="fil1" d="M172 75c0,2 2,5 5,5 2,0 4,-2 5,-4 0,-3 -2,-5 -5,-6 -2,0 -5,2 -5,5z"/>
  <path class="fil1" d="M137 82c0,3 2,5 4,5 2,0 4,-2 4,-4 1,-3 -1,-4 -4,-5 -2,0 -4,2 -4,4z"/>
  <path class="fil1" d="M148 80c0,2 1,3 3,3 1,0 3,-1 3,-3 0,-2 -2,-3 -3,-3 -2,0 -3,1 -3,3z"/>
  <path class="fil1" d="M119 93c1,2 3,3 5,3 2,-1 3,-3 2,-5 0,-2 -2,-3 -4,-3 -2,1 -4,3 -3,5z"/>
  <path class="fil1" d="M101 100c1,2 3,4 6,3 2,-1 3,-3 3,-6 -1,-2 -3,-3 -6,-3 -2,1 -3,3 -3,6z"/>
  <path class="fil1" d="M79 25c0,2 1,3 3,3 2,0 3,-1 3,-3 0,-2 -1,-3 -3,-3 -2,0 -3,1 -3,3z"/>
  <path class="fil1" d="M118 67c0,2 2,4 5,4 2,0 4,-2 4,-4 0,-3 -2,-5 -4,-5 -3,0 -5,2 -5,5z"/>
  <path class="fil1" d="M153 72c0,2 1,4 3,4 3,0 4,-1 5,-4 0,-2 -2,-4 -4,-4 -2,0 -4,1 -4,4z"/>
  <path class="fil1" d="M129 87c0,2 1,4 3,4 2,0 4,-2 4,-4 0,-1 -1,-3 -3,-3 -2,-1 -4,1 -4,3z"/>
  <path class="fil1" d="M129 71c0,2 2,4 4,4 2,0 3,-2 3,-4 0,-2 -1,-3 -3,-3 -2,0 -4,1 -4,3z"/>
  <path class="fil1" d="M121 77c0,2 2,3 4,3 2,0 3,-1 3,-3 0,-2 -1,-4 -3,-4 -2,0 -4,2 -4,4z"/>
  <path class="fil1" d="M171 55c0,2 1,4 3,4 2,0 4,-2 4,-4 0,-2 -1,-3 -3,-4 -2,0 -4,2 -4,4z"/>
  <path class="fil1" d="M97 89c1,2 3,4 5,3 2,-1 3,-3 3,-5 -1,-2 -3,-3 -5,-2 -2,0 -3,2 -3,4z"/>
  <path class="fil1" d="M138 52c0,2 1,4 3,4 2,0 4,-1 4,-3 0,-2 -2,-4 -4,-4 -1,0 -3,2 -3,3z"/>
  <path class="fil1" d="M161 65c0,2 2,4 4,5 3,0 5,-2 5,-4 0,-3 -2,-5 -4,-5 -2,0 -4,2 -5,4z"/>
  <path class="fil1" d="M174 46c0,1 1,2 3,3 1,0 2,-1 2,-3 1,-1 0,-2 -2,-2 -1,-1 -2,0 -3,2z"/>
  <path class="fil1" d="M87 41c0,1 1,2 2,3 2,0 3,-2 3,-3 0,-1 -1,-3 -3,-3 -1,0 -2,1 -2,3z"/>
  <path class="fil1" d="M65 54c0,1 1,2 2,3 2,0 3,-1 3,-3 0,-1 -1,-2 -2,-3 -2,0 -3,1 -3,3z"/>
  <path class="fil1" d="M148 53c0,2 1,5 4,5 3,0 5,-2 5,-4 0,-3 -2,-5 -4,-5 -3,0 -5,1 -5,4z"/>
  <path class="fil1" d="M105 54c-2,2 -2,4 0,6 1,2 3,2 5,1 2,-2 2,-4 1,-6 -1,-2 -4,-2 -6,-1z"/>
  <path class="fil1" d="M111 69c1,2 2,2 4,2 1,0 2,-2 2,-3 -1,-2 -2,-2 -4,-2 -1,0 -2,2 -2,3z"/>
  <path class="fil1" d="M128 44c1,-1 0,-3 -2,-3 -1,0 -2,1 -3,2 0,1 1,3 2,3 2,0 3,0 3,-2z"/>
  <path class="fil1" d="M140 61c0,-1 -1,-3 -2,-3 -2,0 -3,0 -3,2 -1,1 0,3 2,3 1,0 2,-1 3,-2z"/>
  <path class="fil1" d="M142 27c1,-1 0,-3 -2,-3 -1,0 -2,1 -3,2 0,1 1,3 2,3 2,0 3,-1 3,-2z"/>
  <path class="fil1" d="M83 50c0,-1 -2,-1 -3,0 -1,0 -2,2 -1,3 1,1 2,2 4,1 1,-1 1,-2 0,-4z"/>
  <path class="fil1" d="M134 56c0,-2 -1,-4 -3,-5 -2,0 -4,1 -5,3 0,2 1,4 3,5 2,0 4,-1 5,-3z"/>
  <path class="fil1" d="M159 51c0,2 2,4 4,4 2,0 4,-1 4,-3 1,-3 -1,-5 -3,-5 -2,0 -4,2 -5,4z"/>
  <path class="fil1" d="M135 41c0,2 2,4 4,5 3,0 5,-2 5,-5 1,-2 -1,-4 -4,-5 -2,0 -5,2 -5,5z"/>
  <path class="fil1" d="M144 1c-1,1 -2,3 -1,4 1,2 3,2 5,1 1,-1 2,-3 1,-5 -1,-1 -3,-1 -5,0z"/>
  <path class="fil1" d="M155 21c-2,1 -2,3 -1,5 1,1 3,2 4,1 2,-1 2,-3 1,-5 -1,-1 -3,-2 -4,-1z"/>
  <path class="fil1" d="M151 34c-2,2 -2,4 -1,6 1,1 4,2 5,1 2,-2 3,-4 1,-6 -1,-1 -3,-2 -5,-1z"/>
  <path class="fil1" d="M128 13c-1,1 -2,3 -1,5 1,1 3,2 5,1 1,-1 2,-3 1,-5 -1,-1 -3,-2 -5,-1z"/>
  <path class="fil1" d="M112 47c-1,1 -2,3 -1,5 1,1 3,1 5,0 1,-1 2,-3 1,-4 -1,-2 -3,-2 -5,-1z"/>
  <path class="fil1" d="M90 65c0,2 1,4 3,4 2,0 3,-1 4,-3 0,-2 -1,-3 -3,-4 -2,0 -4,1 -4,3z"/>
  <path class="fil1" d="M80 79c-1,1 1,3 2,3 2,1 4,-1 4,-2 1,-2 -1,-4 -3,-4 -1,-1 -3,1 -3,3z"/>
  <path class="fil1" d="M94 53c0,1 1,3 3,3 2,0 3,-1 4,-3 0,-1 -1,-3 -3,-3 -2,0 -3,1 -4,3z"/>
  <path class="fil1" d="M125 27c-2,1 -2,4 -1,6 1,1 3,2 5,1 2,-2 2,-4 1,-6 -1,-2 -4,-2 -5,-1z"/>
  <path class="fil1" d="M167 7c-1,1 -2,3 -1,4 1,2 3,2 4,1 2,-1 2,-3 1,-4 -1,-1 -3,-2 -4,-1z"/>
  <path class="fil1" d="M101 35c-1,1 -1,3 0,4 1,2 2,2 4,1 1,-1 1,-3 0,-4 -1,-1 -3,-2 -4,-1z"/>
  <path class="fil1" d="M111 40c0,2 2,3 4,4 2,0 3,-2 3,-4 0,-2 -1,-4 -3,-4 -2,0 -4,2 -4,4z"/>
  <path class="fil1" d="M171 22c-1,1 -2,3 -1,5 1,1 3,2 5,1 1,-1 2,-3 1,-5 -1,-1 -3,-2 -5,-1z"/>
  <path class="fil1" d="M168 36c-2,1 -2,3 -1,4 1,2 3,2 4,1 2,-1 2,-3 1,-4 -1,-2 -3,-2 -4,-1z"/>
  <path class="fil1" d="M82 60c-1,2 -1,4 0,5 2,1 4,0 5,-1 1,-1 0,-3 -1,-4 -2,-1 -3,-1 -4,0z"/>
  <path class="fil1" d="M98 72c-1,1 -1,4 1,5 2,1 4,1 5,-1 2,-2 1,-4 0,-5 -2,-2 -5,-1 -6,1z"/>
  <path class="fil1" d="M89 80c1,2 3,4 5,3 2,-1 3,-3 2,-5 0,-2 -2,-3 -4,-2 -2,0 -4,2 -3,4z"/>
  <path class="fil1" d="M164 75c-2,1 -3,2 -2,3 0,2 2,3 3,2 1,0 2,-2 2,-3 -1,-1 -2,-2 -3,-2z"/>
  <path class="fil1" d="M50 52c2,0 3,-1 4,-3 0,-2 -2,-3 -3,-4 -2,0 -4,2 -4,3 0,2 1,4 3,4z"/>
  <path class="fil1" d="M41 78c1,0 3,-1 3,-3 0,-1 -1,-3 -3,-3 -1,0 -3,1 -3,3 0,2 1,3 3,3z"/>
  <path class="fil1" d="M3 148c1,1 3,-1 3,-2 0,-2 -1,-3 -3,-3 -1,0 -3,1 -3,2 0,2 1,3 3,3z"/>
  <path class="fil1" d="M54 81c3,1 4,-1 5,-3 0,-2 -2,-4 -4,-4 -2,0 -4,1 -4,3 0,2 1,4 3,4z"/>
  <path class="fil1" d="M105 112c2,0 4,-2 4,-4 0,-2 -1,-3 -3,-4 -2,0 -4,2 -4,4 0,2 1,4 3,4z"/>
  <path class="fil1" d="M86 125c2,0 3,-2 4,-4 0,-2 -2,-3 -4,-4 -2,0 -3,2 -4,4 0,2 2,4 4,4z"/>
  <path class="fil1" d="M83 156c2,0 4,-1 4,-3 0,-2 -1,-4 -3,-4 -2,0 -4,1 -4,3 0,2 1,4 3,4z"/>
  <path class="fil1" d="M115 102c2,0 3,-2 4,-3 0,-2 -2,-3 -3,-3 -2,0 -3,1 -3,2 0,2 1,3 2,4z"/>
  <path class="fil1" d="M90 135c2,0 4,-2 4,-4 1,-3 -1,-5 -3,-5 -3,0 -5,2 -5,4 0,2 2,4 4,5z"/>
  <path class="fil1" d="M93 104c2,0 4,-1 4,-4 1,-2 -1,-4 -3,-4 -3,-1 -5,1 -5,4 0,2 1,4 4,4z"/>
  <path class="fil1" d="M63 149c3,0 5,-2 5,-5 0,-2 -2,-4 -4,-5 -3,0 -5,2 -5,5 -1,2 1,4 4,5z"/>
  <path class="fil1" d="M11 102c2,0 3,-1 3,-3 0,-1 -1,-2 -2,-3 -2,0 -3,1 -3,3 0,1 1,2 2,3z"/>
  <path class="fil1" d="M61 125c1,1 4,2 6,1 1,-2 2,-4 1,-6 -2,-2 -4,-2 -6,-1 -2,1 -2,4 -1,6z"/>
  <path class="fil1" d="M76 113c1,2 4,2 5,1 2,-1 3,-4 1,-5 -1,-2 -3,-3 -5,-2 -2,2 -2,4 -1,6z"/>
  <path class="fil1" d="M76 101c1,2 4,2 5,1 2,-1 3,-4 1,-6 -1,-2 -3,-2 -5,-1 -2,2 -2,4 -1,6z"/>
  <path class="fil1" d="M63 134c1,2 4,2 5,1 2,-1 3,-4 1,-5 -1,-2 -3,-3 -5,-1 -2,1 -2,3 -1,5z"/>
  <path class="fil1" d="M72 125c1,2 4,3 6,1 2,-1 3,-4 2,-6 -2,-2 -5,-3 -7,-1 -2,1 -3,4 -1,6z"/>
  <path class="fil1" d="M53 158c1,2 4,3 6,1 1,-1 2,-4 1,-5 -2,-2 -4,-3 -6,-1 -2,1 -2,3 -1,5z"/>
  <path class="fil1" d="M68 155c1,1 4,2 5,1 2,-2 3,-4 2,-6 -2,-2 -4,-3 -6,-1 -2,1 -3,4 -1,6z"/>
  <path class="fil1" d="M27 151c1,1 3,2 4,1 2,-1 2,-3 1,-5 -1,-1 -3,-2 -5,-1 -1,1 -1,3 0,5z"/>
  <path class="fil1" d="M60 113c3,0 5,-1 5,-4 0,-2 -1,-4 -4,-5 -2,0 -5,2 -5,4 0,3 2,5 4,5z"/>
  <path class="fil1" d="M86 93c1,2 3,2 5,1 1,-1 2,-3 0,-5 -1,-1 -3,-1 -4,0 -2,1 -2,3 -1,4z"/>
  <path class="fil1" d="M12 129c1,1 3,2 4,1 1,-1 2,-3 1,-4 -1,-2 -3,-2 -4,-1 -1,1 -2,3 -1,4z"/>
  <path class="fil1" d="M33 96c1,1 3,1 4,0 2,-1 2,-2 1,-4 -1,-1 -3,-1 -4,0 -1,1 -1,2 -1,4z"/>
  <path class="fil1" d="M31 123c0,1 2,1 4,0 1,0 1,-2 0,-4 -1,-1 -2,-1 -4,0 -1,1 -1,2 0,4z"/>
  <path class="fil1" d="M48 139c0,2 2,2 4,1 1,-1 1,-3 0,-4 -1,-1 -2,-2 -4,-1 -1,1 -1,3 0,4z"/>
  <path class="fil1" d="M45 127c1,1 3,1 4,1 1,-1 2,-3 1,-5 -1,-1 -3,-1 -4,0 -2,0 -2,2 -1,4z"/>
  <path class="fil1" d="M58 95c1,1 3,2 4,1 2,-1 2,-3 1,-5 -1,-1 -3,-2 -4,-1 -2,1 -2,3 -1,5z"/>
  <path class="fil1" d="M16 179c1,2 3,2 5,1 1,-1 2,-3 1,-4 -1,-2 -3,-2 -5,-1 -2,1 -2,3 -1,4z"/>
  <path class="fil1" d="M40 163c2,2 4,3 6,1 2,-1 2,-3 1,-5 -1,-2 -4,-2 -6,-1 -1,1 -2,4 -1,5z"/>
  <path class="fil1" d="M85 143c2,1 3,1 4,0 1,-2 1,-3 0,-4 -2,-1 -4,-1 -4,0 -1,2 -1,3 0,4z"/>
  <path class="fil1" d="M72 72c2,-1 3,-3 2,-5 0,-1 -2,-2 -4,-2 -2,1 -3,3 -2,4 0,2 2,3 4,3z"/>
  <path class="fil1" d="M216 82c0,2 -2,4 -4,4 -3,0 -4,-2 -4,-4 -1,-2 1,-4 4,-4 2,0 4,2 4,4z"/>
  <path class="fil1" d="M204 80c0,2 -1,3 -3,3 -1,0 -3,-1 -3,-3 0,-2 2,-3 3,-3 2,0 3,1 3,3z"/>
  <path class="fil1" d="M251 100c-1,2 -3,4 -6,3 -2,-1 -3,-3 -3,-6 1,-2 3,-3 6,-3 2,1 4,3 3,6z"/>
  <path class="fil1" d="M273 25c0,2 -1,3 -3,3 -2,0 -3,-1 -3,-3 0,-2 1,-3 3,-3 2,0 3,1 3,3z"/>
  <path class="fil1" d="M234 74c0,3 -2,5 -5,5 -2,0 -4,-2 -4,-5 0,-2 2,-5 4,-5 3,0 5,2 5,5z"/>
  <path class="fil1" d="M226 88c0,2 -2,4 -4,4 -2,0 -3,-2 -4,-3 0,-2 2,-4 4,-4 2,-1 3,1 4,3z"/>
  <path class="fil1" d="M193 56c0,2 -2,4 -4,4 -2,0 -3,-1 -4,-3 0,-2 2,-4 4,-4 2,0 4,1 4,3z"/>
  <path class="fil1" d="M255 89c-1,2 -3,4 -5,3 -2,-1 -3,-3 -2,-5 0,-2 2,-3 4,-2 2,0 3,2 3,4z"/>
  <path class="fil1" d="M74 85c1,1 -1,3 -3,3 -2,0 -3,-1 -3,-3 0,-2 1,-4 3,-4 2,0 3,2 3,4z"/>
  <path class="fil1" d="M210 61c0,2 -1,4 -3,4 -2,0 -3,-1 -4,-3 0,-2 2,-3 3,-4 2,0 4,2 4,3z"/>
  <path class="fil1" d="M182 63c0,1 -1,2 -2,2 -1,0 -3,-1 -3,-2 0,-1 1,-3 3,-3 1,0 2,1 2,3z"/>
  <path class="fil1" d="M157 62c1,1 0,2 -2,3 -1,0 -2,-1 -3,-3 0,-1 1,-2 3,-2 1,-1 2,1 2,2z"/>
  <path class="fil1" d="M49 104c0,2 -1,3 -2,3 -2,0 -3,-1 -3,-2 0,-2 1,-3 3,-3 1,0 2,1 2,2z"/>
  <path class="fil1" d="M114 90c0,1 -1,2 -2,2 -2,0 -3,-1 -3,-2 0,-2 1,-3 3,-3 1,0 2,1 2,3z"/>
  <path class="fil1" d="M222 77c0,2 -1,3 -3,3 -1,0 -2,-1 -2,-2 0,-2 1,-3 2,-3 2,0 3,1 3,2z"/>
  <path class="fil1" d="M234 65c0,1 -1,2 -3,2 -1,0 -2,-1 -2,-2 0,-2 1,-3 2,-3 2,0 3,1 3,3z"/>
  <path class="fil1" d="M266 41c0,1 -2,2 -3,3 -1,0 -3,-2 -3,-3 0,-1 1,-3 3,-3 1,0 2,1 3,3z"/>
  <path class="fil1" d="M287 54c0,1 -1,2 -2,3 -2,0 -3,-1 -3,-3 0,-1 1,-2 2,-3 2,0 3,1 3,3z"/>
  <path class="fil1" d="M204 53c0,2 -1,5 -4,5 -2,0 -5,-2 -5,-4 0,-3 2,-5 4,-5 3,0 5,1 5,4z"/>
  <path class="fil1" d="M247 54c2,2 2,4 1,6 -2,2 -4,2 -6,1 -2,-2 -2,-4 -1,-6 2,-2 4,-2 6,-1z"/>
  <path class="fil1" d="M243 71c-1,2 -2,3 -3,2 -2,0 -3,-2 -2,-3 0,-1 2,-2 3,-2 1,1 2,2 2,3z"/>
  <path class="fil1" d="M269 50c0,-1 2,-1 3,0 1,0 2,2 1,3 -1,1 -2,2 -3,1 -2,-1 -2,-2 -1,-4z"/>
  <path class="fil1" d="M218 53c0,-2 1,-4 3,-4 2,-1 4,1 5,3 0,2 -1,4 -3,4 -2,1 -4,0 -5,-3z"/>
  <path class="fil1" d="M210 71c0,2 -2,4 -5,4 -2,1 -4,-1 -4,-4 0,-2 2,-4 4,-4 3,0 5,2 5,4z"/>
  <path class="fil1" d="M196 47c0,2 -2,4 -4,4 -2,1 -4,-1 -4,-3 0,-2 1,-4 3,-4 2,-1 4,1 5,3z"/>
  <path class="fil1" d="M217 41c0,2 -2,4 -4,5 -3,0 -5,-2 -5,-5 -1,-2 1,-4 4,-5 2,0 5,2 5,5z"/>
  <path class="fil1" d="M206 7c2,1 2,3 1,5 -1,1 -3,1 -4,0 -2,-1 -2,-3 -1,-4 1,-2 3,-2 4,-1z"/>
  <path class="fil1" d="M211 24c2,1 2,3 1,4 -1,2 -3,2 -5,1 -1,-1 -1,-3 0,-4 1,-2 3,-2 4,-1z"/>
  <path class="fil1" d="M201 34c2,2 2,4 1,6 -1,1 -4,2 -5,1 -2,-2 -3,-4 -1,-6 1,-1 3,-2 5,-1z"/>
  <path class="fil1" d="M231 14c2,1 2,3 1,4 -1,2 -3,2 -5,1 -1,-1 -1,-3 0,-5 1,-1 3,-2 4,0z"/>
  <path class="fil1" d="M240 47c1,1 2,3 1,5 -1,1 -3,1 -5,0 -1,-1 -2,-3 -1,-4 1,-2 3,-2 5,-1z"/>
  <path class="fil1" d="M245 18c2,1 2,3 1,5 -1,1 -3,2 -5,0 -1,-1 -1,-3 0,-4 1,-2 3,-2 4,-1z"/>
  <path class="fil1" d="M262 65c0,2 -1,4 -3,4 -2,0 -3,-1 -4,-3 0,-2 1,-3 3,-4 2,0 4,1 4,3z"/>
  <path class="fil1" d="M272 79c1,1 -1,3 -2,3 -2,1 -4,-1 -4,-2 -1,-2 1,-4 3,-4 1,-1 3,1 3,3z"/>
  <path class="fil1" d="M258 53c0,1 -1,3 -3,3 -2,0 -3,-1 -4,-3 0,-1 1,-3 3,-3 2,0 3,1 4,3z"/>
  <path class="fil1" d="M227 27c2,1 3,4 1,6 -1,1 -3,2 -5,1 -2,-2 -2,-4 -1,-6 1,-2 4,-2 5,-1z"/>
  <path class="fil1" d="M184 12c1,1 2,3 1,4 -1,2 -3,2 -4,1 -2,-1 -2,-3 -1,-4 1,-1 3,-2 4,-1z"/>
  <path class="fil1" d="M251 35c1,1 1,3 0,4 -1,2 -2,2 -4,1 -1,-1 -1,-3 0,-4 1,-1 3,-2 4,-1z"/>
  <path class="fil1" d="M241 40c0,2 -1,3 -4,4 -2,0 -3,-2 -3,-4 0,-2 1,-4 3,-4 2,0 4,2 4,4z"/>
  <path class="fil1" d="M191 26c2,1 2,3 1,4 -1,1 -3,2 -4,1 -2,-1 -2,-3 -1,-5 1,-1 3,-1 4,0z"/>
  <path class="fil1" d="M184 36c2,1 2,3 1,4 -1,2 -3,2 -4,1 -2,-1 -2,-3 -1,-4 1,-2 3,-2 4,-1z"/>
  <path class="fil1" d="M252 68c1,2 -1,3 -2,4 -2,0 -4,-1 -4,-3 0,-2 1,-4 3,-4 1,0 3,1 3,3z"/>
  <path class="fil1" d="M271 60c1,2 0,4 -1,5 -2,1 -4,0 -5,-1 -1,-1 0,-3 1,-4 2,-1 4,-1 5,0z"/>
  <path class="fil1" d="M251 77c1,2 0,4 -1,5 -2,2 -5,1 -6,0 -1,-2 -1,-5 1,-6 2,-1 4,-1 6,1z"/>
  <path class="fil1" d="M263 80c-1,2 -3,4 -5,3 -2,-1 -3,-3 -2,-5 0,-2 2,-3 4,-2 2,0 4,2 3,4z"/>
  <path class="fil1" d="M191 76c1,0 2,2 2,3 -1,1 -2,2 -3,2 -2,-1 -3,-2 -2,-3 0,-2 2,-3 3,-2z"/>
  <path class="fil1" d="M269 115c-3,0 -5,-1 -5,-4 0,-2 2,-4 4,-4 2,0 4,1 4,4 1,2 -1,4 -3,4z"/>
  <path class="fil1" d="M302 52c-2,0 -3,-1 -3,-3 -1,-2 1,-3 2,-4 2,0 4,2 4,3 0,2 -1,4 -3,4z"/>
  <path class="fil1" d="M311 78c-1,0 -3,-1 -3,-3 0,-1 1,-3 3,-3 2,0 3,1 3,3 0,2 -1,3 -3,3z"/>
  <path class="fil1" d="M352 151c-1,1 -3,-1 -3,-2 0,-2 1,-3 3,-3 1,-1 3,1 3,2 0,2 -1,3 -3,3z"/>
  <path class="fil1" d="M298 81c-2,1 -4,-1 -5,-3 0,-2 2,-4 4,-4 2,0 4,1 4,3 0,2 -1,4 -3,4z"/>
  <path class="fil1" d="M274 142c-3,0 -5,-1 -5,-4 0,-3 2,-5 4,-5 3,0 5,2 5,4 0,3 -2,5 -4,5z"/>
  <path class="fil1" d="M249 113c-2,0 -4,-1 -4,-3 0,-2 1,-4 3,-4 2,0 4,1 4,3 0,2 -1,4 -3,4z"/>
  <path class="fil1" d="M268 127c-2,0 -4,-1 -4,-3 -1,-2 1,-4 3,-4 2,0 4,1 4,3 0,2 -1,4 -3,4z"/>
  <path class="fil1" d="M270 160c-2,0 -4,-2 -4,-4 0,-2 2,-3 4,-4 2,0 3,2 3,4 1,2 -1,3 -3,4z"/>
  <path class="fil1" d="M237 102c-2,0 -3,-2 -3,-3 -1,-2 1,-3 2,-3 2,0 3,1 3,2 0,2 -1,3 -2,4z"/>
  <path class="fil1" d="M279 115c-1,1 -3,-1 -3,-2 0,-2 1,-3 3,-4 1,0 3,1 3,3 0,2 -1,3 -3,3z"/>
  <path class="fil1" d="M262 135c-2,0 -4,-2 -4,-4 0,-3 1,-5 4,-5 2,0 4,2 4,4 0,2 -1,4 -4,5z"/>
  <path class="fil1" d="M260 121c-2,0 -4,-1 -5,-4 0,-2 2,-4 4,-4 3,-1 5,1 5,3 0,3 -2,5 -4,5z"/>
  <path class="fil1" d="M294 150c-3,1 -5,-1 -5,-4 0,-3 1,-5 4,-5 3,0 5,2 5,4 0,3 -2,5 -4,5z"/>
  <path class="fil1" d="M344 112c-1,0 -3,-1 -3,-2 0,-2 1,-3 3,-3 1,0 2,1 2,2 0,2 -1,3 -2,3z"/>
  <path class="fil1" d="M297 122c-2,2 -4,2 -6,1 -2,-1 -2,-3 -1,-5 1,-2 4,-3 6,-1 1,1 2,3 1,5z"/>
  <path class="fil1" d="M274 102c-1,2 -3,3 -5,1 -2,-1 -2,-3 -1,-5 1,-2 4,-2 5,-1 2,1 3,4 1,5z"/>
  <path class="fil1" d="M281 105c-2,0 -3,-2 -2,-4 0,-1 2,-2 4,-2 2,1 2,3 2,4 -1,2 -3,3 -4,2z"/>
  <path class="fil1" d="M280 96c-2,-1 -3,-2 -2,-4 0,-1 2,-2 3,-2 2,1 3,2 2,4 0,2 -2,2 -3,2z"/>
  <path class="fil1" d="M288 133c-2,1 -4,2 -6,1 -1,-2 -2,-4 -1,-6 2,-1 4,-2 6,-1 1,1 2,4 1,6z"/>
  <path class="fil1" d="M280 125c-1,2 -4,3 -6,1 -2,-1 -3,-4 -1,-6 1,-2 4,-3 6,-1 2,1 3,4 1,6z"/>
  <path class="fil1" d="M299 158c-1,2 -4,3 -5,1 -2,-1 -3,-4 -2,-5 2,-2 4,-3 6,-1 2,1 2,3 1,5z"/>
  <path class="fil1" d="M287 146c-2,2 -4,2 -6,1 -2,-2 -2,-4 -1,-6 1,-2 4,-3 6,-1 2,1 2,4 1,6z"/>
  <path class="fil1" d="M290 176c-2,0 -5,-1 -5,-4 0,-2 2,-4 4,-5 3,0 5,2 5,4 0,3 -2,5 -4,5z"/>
  <path class="fil1" d="M325 151c-1,1 -3,2 -4,1 -2,-1 -2,-3 -1,-5 1,-1 3,-2 5,-1 1,1 2,3 0,5z"/>
  <path class="fil1" d="M292 113c-3,0 -5,-1 -5,-4 0,-2 2,-4 4,-5 2,0 5,2 5,4 0,3 -2,5 -4,5z"/>
  <path class="fil1" d="M266 93c-1,2 -3,2 -5,1 -1,-1 -1,-3 0,-5 1,-1 3,-1 4,0 2,1 2,3 1,4z"/>
  <path class="fil1" d="M336 133c-1,1 -3,1 -4,0 -2,-1 -2,-2 -1,-4 1,-1 3,-1 4,0 1,0 1,2 1,4z"/>
  <path class="fil1" d="M326 100c-1,1 -3,2 -4,1 -1,-1 -2,-3 -1,-4 1,-1 3,-2 4,-1 1,1 2,3 1,4z"/>
  <path class="fil1" d="M306 111c-1,1 -3,2 -4,1 -2,-1 -2,-3 -1,-5 1,-1 3,-1 4,0 2,1 2,3 1,4z"/>
  <path class="fil1" d="M323 127c-1,1 -3,1 -4,0 -1,-1 -2,-2 -1,-4 1,-1 3,-1 4,0 2,1 2,2 1,4z"/>
  <path class="fil1" d="M305 139c-1,2 -3,2 -4,1 -2,-1 -2,-3 -1,-4 1,-1 2,-2 4,-1 1,1 1,3 1,4z"/>
  <path class="fil1" d="M307 127c-1,1 -3,1 -4,1 -1,-1 -2,-3 -1,-5 1,-1 3,-1 5,0 1,0 1,2 0,4z"/>
  <path class="fil1" d="M276 91c-1,1 -3,2 -5,1 -1,-1 -2,-3 -1,-5 1,-1 3,-2 5,-1 1,1 2,3 1,5z"/>
  <path class="fil1" d="M294 95c-1,1 -3,2 -4,1 -2,-1 -2,-3 -1,-5 1,-1 3,-2 4,-1 2,1 2,3 1,5z"/>
  <path class="fil1" d="M332 172c-1,1 -3,2 -4,1 -2,-1 -2,-3 -1,-5 1,-1 3,-2 4,-1 2,1 2,3 1,5z"/>
  <path class="fil1" d="M317 141c-1,1 -3,2 -4,1 -2,-1 -2,-3 -1,-5 1,-2 3,-2 4,-1 2,1 2,3 1,5z"/>
  <path class="fil1" d="M312 152c-1,1 -3,2 -5,1 -1,-1 -2,-3 -1,-5 1,-1 3,-2 5,-1 1,1 2,3 1,5z"/>
  <path class="fil1" d="M308 162c-1,1 -3,2 -4,1 -2,-1 -2,-3 -1,-5 1,-1 3,-2 4,-1 2,1 2,3 1,5z"/>
  <path class="fil1" d="M274 168c-1,1 -3,1 -5,0 -1,-1 -2,-3 -1,-4 1,-1 3,-2 5,-1 1,1 2,3 1,5z"/>
  <path class="fil1" d="M323 164c-1,2 -4,2 -6,1 -1,-1 -2,-4 -1,-6 2,-1 4,-2 6,-1 2,2 2,4 1,6z"/>
  <path class="fil1" d="M269 146c-2,0 -4,0 -4,-1 -1,-1 -1,-3 0,-4 2,-1 3,-1 4,1 1,1 1,3 0,4z"/>
  <path class="fil1" d="M280 72c-2,-1 -3,-3 -2,-5 0,-1 2,-2 4,-2 2,1 3,3 2,4 0,2 -2,3 -4,3z"/>
  <path class="fil1" d="M89 112c0,-2 3,-5 5,-5 3,0 5,3 5,5 0,3 -2,5 -5,5 -2,0 -5,-2 -5,-5z"/>
  <path class="fil1" d="M74 136c0,-3 2,-5 5,-5 2,0 5,2 5,5 0,2 -3,5 -5,5 -3,0 -5,-3 -5,-5z"/>
  <path class="fil1" d="M78 196c0,-3 2,-5 5,-5 3,0 5,2 5,5 0,3 -2,5 -5,5 -3,0 -5,-2 -5,-5z"/>
  <path class="fil1" d="M59 167c0,-3 3,-5 5,-5 3,0 5,2 5,5 0,3 -2,5 -5,5 -2,0 -5,-2 -5,-5z"/>
  <path class="fil1" d="M81 223c0,-2 2,-5 5,-5 3,0 5,3 5,5 0,3 -2,5 -5,5 -3,0 -5,-2 -5,-5z"/>
  <path class="fil1" d="M97 257c0,-3 3,-5 5,-5 3,0 5,2 5,5 0,3 -2,5 -5,5 -2,0 -5,-2 -5,-5z"/>
  <path class="fil1" d="M124 255c0,-2 2,-5 5,-5 3,0 5,3 5,5 0,3 -2,5 -5,5 -3,0 -5,-2 -5,-5z"/>
  <path class="fil1" d="M140 277c0,-3 3,-5 5,-5 3,0 5,2 5,5 0,2 -2,5 -5,5 -2,0 -5,-3 -5,-5z"/>
  <path class="fil1" d="M183 267c0,-2 2,-5 5,-5 2,0 5,3 5,5 0,3 -3,5 -5,5 -3,0 -5,-2 -5,-5z"/>
  <path class="fil1" d="M214 277c0,-3 3,-5 5,-5 3,0 5,2 5,5 0,3 -2,5 -5,5 -2,0 -5,-2 -5,-5z"/>
  <path class="fil1" d="M231 258c0,-3 3,-5 5,-5 3,0 5,2 5,5 0,2 -2,5 -5,5 -2,0 -5,-3 -5,-5z"/>
  <path class="fil1" d="M256 238c0,-3 2,-5 5,-5 2,0 5,2 5,5 0,3 -3,5 -5,5 -3,0 -5,-2 -5,-5z"/>
  <path class="fil1" d="M267 204c0,-2 2,-5 5,-5 3,0 5,3 5,5 0,3 -2,5 -5,5 -3,0 -5,-2 -5,-5z"/>
  <path class="fil1" d="M108 79c0,-2 2,-5 5,-5 2,0 5,3 5,5 0,3 -3,5 -5,5 -3,0 -5,-2 -5,-5z"/>
  <path class="fil1" d="M140 69c0,-3 3,-5 5,-5 3,0 5,2 5,5 0,3 -2,5 -5,5 -2,0 -5,-2 -5,-5z"/>
  <path class="fil1" d="M186 68c0,-2 3,-5 5,-5 3,0 6,3 6,5 0,3 -3,5 -6,5 -2,0 -5,-2 -5,-5z"/>
  <path class="fil1" d="M214 65c0,-2 3,-5 5,-5 3,0 5,3 5,5 0,3 -2,5 -5,5 -2,0 -5,-2 -5,-5z"/>
  <path class="fil1" d="M230 87c0,-2 2,-5 5,-5 3,0 5,3 5,5 0,3 -2,5 -5,5 -3,0 -5,-2 -5,-5z"/>
  <path class="fil1" d="M254 103c0,-3 2,-5 5,-5 3,0 5,2 5,5 0,3 -2,5 -5,5 -3,0 -5,-2 -5,-5z"/>
  <path class="fil1" d="M278 157c0,-3 3,-5 5,-5 3,0 5,2 5,5 0,3 -2,5 -5,5 -2,0 -5,-2 -5,-5z"/>
 </g>
</svg>
