<?xml version="1.0" encoding="UTF-8"?>
<!DOCTYPE svg PUBLIC "-//W3C//DTD SVG 1.1//EN" "http://www.w3.org/Graphics/SVG/1.1/DTD/svg11.dtd">
<!-- Creator: CorelDRAW X6 -->
<svg xmlns="http://www.w3.org/2000/svg" xml:space="preserve" width="18.9706mm" height="9.5712mm" version="1.1" style="shape-rendering:geometricPrecision; text-rendering:geometricPrecision; image-rendering:optimizeQuality; fill-rule:evenodd; clip-rule:evenodd"
viewBox="0 0 2911 1469"
 xmlns:xlink="http://www.w3.org/1999/xlink">
 <defs>
  <style type="text/css">
   <![CDATA[
    .fil0 {fill:#C29749}
    .fil1 {fill:#C29749;fill-rule:nonzero}
   ]]>
  </style>
 </defs>
 <g id="Слой_x0020_1">
  <metadata id="CorelCorpID_0Corel-Layer"/>
  <path class="fil0" d="M2083 738c0,-32 10,-65 26,-89 2,-4 4,-7 8,-11 19,-23 37,-38 66,-49 39,-16 86,-14 124,5 8,4 16,10 23,15 30,22 52,55 60,92 7,36 4,71 -10,104 -4,8 -9,17 -14,24 -8,12 -17,20 -27,31 -26,25 -67,38 -105,38 -42,0 -79,-21 -107,-48 -23,-24 -44,-65 -44,-112zm450 -201c-2,3 -1,2 -1,11 1,129 0,261 0,390l48 0 0 -108c9,-1 19,-1 27,-2 10,-1 15,-1 24,-3 1,4 5,9 8,13l50 85c2,4 6,11 7,15l57 0c-3,-5 -7,-11 -10,-16 -17,-32 -41,-69 -57,-99 -3,-5 -9,-12 -10,-17 13,-7 27,-20 37,-32 11,-13 19,-27 25,-44 10,-29 11,-57 2,-89 -10,-39 -44,-75 -81,-91 -15,-6 -36,-13 -56,-13 -23,0 -46,0 -70,0zm330 401l48 0 0 -401 -48 0 0 401zm-1159 -354l169 0c-1,8 -66,124 -75,144l-30 55c-4,7 -8,15 -12,22l-41 77c-2,4 -4,7 -6,11l-24 45 259 0 0 -47 -178 0c1,-4 9,-18 11,-22 2,-4 4,-7 6,-11l29 -56c12,-19 35,-64 48,-88l76 -143c4,-7 17,-29 18,-35l-250 0 0 48zm893 197l-17 0 0 -195 23 0c49,0 94,41 94,93 0,60 -45,102 -100,102zm-363 -251l10 0c28,1 55,7 80,20 36,18 60,38 83,71 21,31 35,77 35,117 0,68 -33,130 -84,168l-23 15c-5,2 -8,4 -13,6 -34,17 -84,24 -128,14 -146,-35 -210,-212 -114,-334 13,-16 16,-18 29,-29 3,-3 7,-6 11,-9 32,-24 73,-38 114,-39z"/>
  <polygon class="fil0" points="741,468 771,468 771,542 741,542 "/>
  <polygon class="fil0" points="741,937 771,937 771,1005 741,1005 "/>
  <path class="fil0" d="M643 536l1 0 244 0 4 0c4,0 7,1 9,4 2,4 2,7 0,10l-184 362c-1,3 -1,7 1,10 2,3 5,5 8,5l105 0 1 0c12,-1 16,-9 16,-20l0 0 0 0c0,-17 14,-31 30,-31 17,0 31,14 31,31 0,16 -18,30 -31,30l0 0 -92 0 -177 0 0 0 -6 0 192 -377c1,-3 1,-6 -1,-9 -2,-3 -5,-5 -8,-5l-95 0c-13,0 -18,8 -18,20 0,17 -13,30 -30,30 -17,0 -30,-13 -30,-30 0,-17 17,-30 30,-30z"/>
  <path class="fil1" d="M728 1165c-1,-11 8,-21 19,-22 11,-1 21,8 22,19 1,11 -7,21 -19,22 -11,1 -21,-7 -22,-19z"/>
  <path class="fil1" d="M594 1127c0,-10 8,-18 18,-18 9,-1 18,7 18,17 0,10 -8,18 -18,18 -9,1 -18,-7 -18,-17z"/>
  <path class="fil1" d="M639 1141c0,-8 6,-14 13,-14 7,0 13,6 13,13 1,7 -5,13 -12,13 -7,1 -13,-5 -14,-12z"/>
  <path class="fil1" d="M491 1094c2,-9 11,-14 20,-12 9,3 14,12 12,21 -3,9 -12,14 -21,11 -9,-2 -14,-11 -11,-20z"/>
  <path class="fil1" d="M462 1039c3,-11 14,-17 24,-14 10,3 16,14 13,24 -3,11 -13,17 -24,14 -10,-3 -16,-14 -13,-24z"/>
  <path class="fil1" d="M341 1379c0,-8 6,-14 14,-14 8,-1 14,5 14,13 0,8 -6,14 -13,14 -8,0 -14,-6 -15,-13z"/>
  <path class="fil1" d="M497 1198c0,-11 9,-20 20,-21 11,0 20,9 21,20 0,11 -9,20 -20,21 -11,0 -20,-9 -21,-20z"/>
  <path class="fil1" d="M661 1176c0,-9 7,-17 16,-18 10,-1 18,6 19,15 0,10 -7,18 -16,19 -10,1 -18,-6 -19,-16z"/>
  <path class="fil1" d="M559 1179c0,-8 7,-15 15,-15 8,-1 15,6 16,14 0,9 -7,16 -15,16 -8,0 -15,-7 -16,-15z"/>
  <path class="fil1" d="M740 1222c0,-9 6,-17 15,-17 9,-1 16,5 17,14 1,9 -6,16 -15,17 -8,1 -16,-6 -17,-14z"/>
  <path class="fil1" d="M475 1139c2,-8 11,-13 19,-10 8,2 13,10 11,18 -3,9 -11,13 -19,11 -8,-2 -13,-11 -11,-19z"/>
  <path class="fil1" d="M686 1211c-1,-10 7,-19 17,-19 10,-1 19,6 20,16 1,10 -7,19 -17,20 -10,1 -19,-7 -20,-17z"/>
  <path class="fil1" d="M375 1310c0,-6 5,-11 11,-12 6,0 11,5 11,11 1,7 -4,12 -10,12 -7,0 -12,-5 -12,-11z"/>
  <path class="fil1" d="M281 1254c-1,-6 4,-12 10,-12 6,-1 12,4 12,10 1,6 -4,12 -10,12 -6,1 -12,-4 -12,-10z"/>
  <path class="fil1" d="M586 1256c0,-10 7,-18 17,-18 10,-1 18,7 18,17 0,10 -7,18 -17,18 -10,0 -18,-7 -18,-17z"/>
  <path class="fil1" d="M640 1257c-1,-11 7,-20 18,-21 11,-1 21,7 22,18 1,11 -7,21 -18,22 -11,1 -21,-7 -22,-19z"/>
  <path class="fil1" d="M456 1252c-8,-6 -9,-17 -3,-25 6,-7 17,-9 24,-3 8,6 9,17 3,25 -6,7 -17,9 -24,3z"/>
  <path class="fil1" d="M556 1296c1,5 -2,11 -8,13 -6,1 -12,-3 -13,-8 -2,-6 2,-12 8,-13 5,-2 11,2 13,8z"/>
  <path class="fil1" d="M361 1268c-3,6 -9,7 -14,4 -6,-3 -7,-9 -4,-14 3,-6 9,-7 14,-4 6,3 7,9 4,14z"/>
  <path class="fil1" d="M568 1244c2,8 -3,17 -12,20 -9,2 -18,-4 -21,-13 -2,-9 4,-18 13,-20 9,-2 18,4 20,13z"/>
  <path class="fil1" d="M694 1282c0,-9 7,-17 16,-18 10,-1 18,6 19,16 0,9 -7,17 -16,18 -9,1 -18,-6 -19,-16z"/>
  <path class="fil1" d="M586 1311c-1,-11 7,-21 18,-22 11,-1 21,7 22,18 0,11 -8,21 -19,22 -11,1 -20,-7 -21,-18z"/>
  <path class="fil1" d="M641 1430c-6,-5 -8,-14 -4,-20 5,-7 14,-8 21,-4 6,5 8,14 3,20 -4,7 -13,8 -20,4z"/>
  <path class="fil1" d="M611 1384c-7,-5 -8,-13 -4,-20 4,-6 13,-8 19,-3 6,4 8,13 4,19 -5,6 -13,8 -19,4z"/>
  <path class="fil1" d="M655 1338c-8,-5 -10,-16 -5,-23 6,-8 16,-9 23,-4 8,5 10,15 4,22 -5,8 -15,10 -22,5z"/>
  <path class="fil1" d="M524 1428c-7,-4 -9,-13 -4,-19 4,-7 13,-9 20,-4 6,4 8,13 3,20 -4,6 -13,8 -19,3z"/>
  <path class="fil1" d="M486 1283c-7,-4 -9,-13 -4,-19 4,-7 13,-9 20,-4 6,4 8,13 3,20 -4,6 -13,8 -19,3z"/>
  <path class="fil1" d="M462 1408c-6,-5 -7,-14 -2,-20 4,-6 13,-7 19,-3 7,5 8,14 3,20 -5,6 -14,7 -20,3z"/>
  <path class="fil1" d="M345 1147c-1,-8 4,-16 12,-17 8,-1 16,4 17,12 1,8 -5,16 -12,17 -8,1 -16,-4 -17,-12z"/>
  <path class="fil1" d="M409 1259c-1,-7 4,-14 11,-15 8,-1 15,4 16,11 1,8 -4,15 -12,16 -7,1 -14,-4 -15,-12z"/>
  <path class="fil1" d="M540 1369c-7,-5 -9,-16 -4,-23 5,-8 15,-10 23,-5 8,6 10,16 4,24 -5,7 -15,9 -23,4z"/>
  <path class="fil1" d="M728 1467c-5,-4 -7,-12 -3,-18 4,-6 12,-7 18,-3 5,4 7,12 3,17 -4,6 -12,8 -18,4z"/>
  <path class="fil1" d="M438 1334c-5,-5 -6,-12 -2,-18 4,-5 12,-6 17,-2 6,4 7,12 3,17 -5,6 -12,7 -18,3z"/>
  <path class="fil1" d="M481 1315c-1,-9 6,-16 15,-17 9,0 17,7 17,16 0,9 -7,16 -16,17 -9,0 -16,-7 -16,-16z"/>
  <path class="fil1" d="M737 1383c-6,-5 -8,-13 -4,-20 5,-6 13,-8 20,-3 6,4 7,13 3,19 -4,6 -13,8 -19,4z"/>
  <path class="fil1" d="M726 1332c-7,-4 -8,-13 -4,-20 5,-6 14,-8 20,-4 7,5 9,14 4,21 -4,6 -13,8 -20,3z"/>
  <path class="fil1" d="M353 1225c-4,-6 -3,-15 3,-19 7,-4 15,-3 19,4 5,6 3,14 -3,18 -6,5 -15,3 -19,-3z"/>
  <path class="fil1" d="M435 1187c-5,-8 -3,-18 5,-23 7,-6 17,-4 23,4 5,7 3,18 -4,23 -8,5 -18,4 -24,-4z"/>
  <path class="fil1" d="M387 1150c3,-9 12,-14 21,-11 9,2 14,12 12,20 -3,9 -12,14 -21,12 -9,-3 -14,-12 -12,-21z"/>
  <path class="fil1" d="M709 1161c-6,-2 -10,-8 -8,-14 2,-6 8,-9 14,-7 6,1 9,7 7,13 -1,6 -8,10 -13,8z"/>
  <path class="fil1" d="M349 698c11,-1 21,7 21,18 1,11 -7,21 -18,22 -11,1 -20,-7 -21,-18 -1,-11 7,-21 18,-22z"/>
  <path class="fil1" d="M371 1005c10,-1 18,6 19,16 1,10 -6,18 -16,19 -10,1 -19,-6 -19,-16 -1,-10 6,-18 16,-19z"/>
  <path class="fil1" d="M217 1262c8,-1 14,5 15,13 1,7 -5,14 -13,15 -8,1 -15,-5 -15,-13 -1,-8 5,-15 13,-15z"/>
  <path class="fil1" d="M176 1148c8,-1 14,5 15,12 1,8 -5,14 -12,15 -8,0 -14,-5 -15,-13 0,-7 5,-14 12,-14z"/>
  <path class="fil1" d="M35 833c7,-1 13,4 13,11 1,7 -4,13 -11,14 -7,1 -13,-5 -14,-12 0,-7 5,-13 12,-13z"/>
  <path class="fil1" d="M236 1134c9,0 17,6 18,16 1,9 -6,17 -15,17 -9,1 -17,-6 -18,-15 -1,-9 6,-17 15,-18z"/>
  <path class="fil1" d="M343 891c11,-1 21,7 22,18 1,11 -8,21 -19,22 -11,1 -21,-7 -21,-18 -1,-11 7,-21 18,-22z"/>
  <path class="fil1" d="M448 998c8,-1 16,5 17,14 0,9 -6,16 -15,17 -8,1 -16,-6 -17,-14 0,-9 6,-16 15,-17z"/>
  <path class="fil1" d="M512 1052c7,-1 13,4 13,11 1,7 -4,13 -11,14 -7,0 -13,-5 -13,-12 -1,-7 4,-13 11,-13z"/>
  <path class="fil1" d="M389 904c10,-1 19,6 20,16 1,10 -7,19 -17,20 -10,1 -19,-7 -20,-17 0,-10 7,-18 17,-19z"/>
  <path class="fil1" d="M425 962c10,0 19,7 20,17 1,11 -7,20 -17,21 -11,0 -20,-7 -20,-17 -1,-11 6,-20 17,-21z"/>
  <path class="fil1" d="M425 1041c10,-1 19,7 20,17 1,11 -7,20 -17,21 -11,1 -20,-7 -21,-17 0,-11 7,-20 18,-21z"/>
  <path class="fil1" d="M273 843c11,-1 21,8 21,19 1,11 -7,21 -18,21 -11,1 -21,-7 -22,-18 -1,-11 7,-21 19,-22z"/>
  <path class="fil1" d="M68 1008c6,-1 12,4 12,10 1,6 -4,11 -10,12 -6,0 -11,-4 -12,-10 0,-6 4,-12 10,-12z"/>
  <path class="fil1" d="M318 940c6,0 11,4 12,10 0,6 -5,12 -11,12 -6,1 -11,-4 -12,-10 0,-6 4,-11 11,-12z"/>
  <path class="fil1" d="M534 1142c6,-1 11,4 12,10 1,6 -4,11 -10,12 -6,0 -12,-4 -12,-10 0,-7 4,-12 10,-12z"/>
  <path class="fil1" d="M955 1093c6,0 11,4 12,10 0,6 -5,12 -11,12 -6,1 -11,-4 -12,-10 0,-6 4,-11 11,-12z"/>
  <path class="fil1" d="M265 947c5,-7 16,-9 24,-4 7,5 9,16 4,23 -5,8 -16,10 -24,5 -7,-5 -9,-16 -4,-24z"/>
  <path class="fil1" d="M330 1060c6,-8 16,-10 24,-5 8,6 10,17 5,24 -6,8 -16,10 -24,5 -8,-5 -10,-16 -5,-24z"/>
  <path class="fil1" d="M309 1031c7,2 11,10 9,17 -3,8 -11,12 -18,9 -7,-2 -11,-10 -9,-17 2,-8 10,-12 18,-9z"/>
  <path class="fil1" d="M283 890c5,-7 16,-9 23,-4 8,5 10,15 4,23 -5,7 -15,9 -23,4 -7,-5 -9,-15 -4,-23z"/>
  <path class="fil1" d="M299 986c6,-9 18,-11 27,-5 10,6 12,18 6,28 -7,9 -19,11 -28,5 -9,-6 -12,-19 -5,-28z"/>
  <path class="fil1" d="M242 784c6,-8 17,-10 25,-4 8,5 10,16 4,24 -5,8 -16,10 -24,4 -8,-5 -10,-16 -5,-24z"/>
  <path class="fil1" d="M282 765c5,-8 16,-10 23,-4 8,5 10,15 5,23 -6,7 -16,9 -23,4 -8,-5 -10,-16 -5,-23z"/>
  <path class="fil1" d="M290 802c6,-8 17,-10 26,-5 8,6 10,17 5,26 -6,8 -18,10 -26,4 -8,-5 -10,-17 -5,-25z"/>
  <path class="fil1" d="M350 758c11,-1 20,7 21,17 1,10 -7,19 -17,20 -11,1 -20,-7 -21,-17 -1,-10 7,-19 17,-20z"/>
  <path class="fil1" d="M115 834c5,-6 13,-8 20,-4 6,5 8,14 4,20 -5,6 -14,8 -20,4 -7,-5 -8,-14 -4,-20z"/>
  <path class="fil1" d="M261 996c11,-1 20,7 21,18 1,11 -7,20 -17,21 -11,1 -20,-7 -21,-18 -1,-11 7,-20 17,-21z"/>
  <path class="fil1" d="M372 1083c5,-7 14,-8 20,-4 7,5 9,14 4,20 -4,7 -13,9 -20,4 -7,-4 -8,-13 -4,-20z"/>
  <path class="fil1" d="M53 915c4,-6 11,-7 17,-3 6,3 7,11 3,17 -4,6 -11,7 -17,3 -6,-4 -7,-12 -3,-17z"/>
  <path class="fil1" d="M145 1073c4,-6 11,-7 17,-4 6,4 7,12 3,18 -4,5 -11,7 -17,3 -6,-4 -7,-12 -3,-17z"/>
  <path class="fil1" d="M199 1006c4,-6 13,-8 19,-3 7,4 8,13 4,19 -4,6 -13,8 -19,3 -7,-4 -8,-13 -4,-19z"/>
  <path class="fil1" d="M126 938c4,-5 12,-7 17,-3 6,4 7,12 3,17 -3,6 -11,7 -17,4 -5,-4 -7,-12 -3,-18z"/>
  <path class="fil1" d="M194 938c4,-6 12,-8 18,-3 6,4 8,12 4,18 -5,6 -13,7 -19,3 -6,-4 -7,-12 -3,-18z"/>
  <path class="fil1" d="M251 1076c4,-7 13,-8 19,-4 7,5 8,13 4,20 -5,6 -13,8 -20,3 -6,-4 -8,-13 -3,-19z"/>
  <path class="fil1" d="M24 701c4,-7 13,-9 20,-4 7,4 8,14 4,20 -5,7 -14,9 -20,4 -7,-5 -9,-14 -4,-20z"/>
  <path class="fil1" d="M119 721c4,-6 13,-8 19,-4 7,5 8,14 4,20 -5,6 -13,8 -20,4 -6,-5 -8,-13 -3,-20z"/>
  <path class="fil1" d="M151 877c4,-6 13,-8 20,-4 6,5 8,14 4,20 -5,7 -14,9 -20,4 -7,-4 -9,-13 -4,-20z"/>
  <path class="fil1" d="M205 841c5,-7 13,-8 20,-4 6,5 8,13 4,20 -5,6 -14,8 -20,4 -7,-5 -8,-14 -4,-20z"/>
  <path class="fil1" d="M239 911c5,-6 14,-8 20,-3 7,4 9,13 4,20 -4,6 -13,8 -20,4 -7,-5 -8,-14 -4,-21z"/>
  <path class="fil1" d="M163 765c5,-8 16,-10 23,-4 8,5 10,15 5,23 -5,8 -16,10 -24,4 -7,-5 -9,-15 -4,-23z"/>
  <path class="fil1" d="M222 725c11,-1 20,7 21,18 1,11 -7,20 -18,21 -11,1 -20,-7 -21,-17 -1,-11 7,-21 18,-22z"/>
  <path class="fil1" d="M312 1176c8,2 13,11 11,19 -3,8 -11,12 -19,10 -8,-2 -13,-11 -11,-19 3,-8 11,-12 19,-10z"/>
  <path class="fil1" d="M785 1277c1,-11 -7,-21 -19,-22 -11,-1 -21,8 -22,19 -1,11 8,21 19,22 11,1 21,-7 22,-19z"/>
  <path class="fil1" d="M937 1125c0,-10 -8,-18 -18,-18 -9,-1 -18,7 -18,17 0,10 8,18 18,19 9,0 18,-8 18,-18z"/>
  <path class="fil1" d="M885 1141c0,-8 -5,-14 -12,-14 -8,0 -14,6 -14,13 0,7 6,13 13,13 7,1 13,-5 13,-12z"/>
  <path class="fil1" d="M1087 1055c-3,-11 -14,-17 -24,-14 -11,3 -17,14 -14,24 3,11 14,17 24,14 10,-3 17,-14 14,-24z"/>
  <path class="fil1" d="M1183 1379c1,-8 -6,-14 -13,-14 -8,-1 -14,5 -14,13 -1,8 5,14 13,14 8,0 14,-6 14,-13z"/>
  <path class="fil1" d="M1027 1198c1,-11 -8,-20 -19,-21 -11,0 -21,9 -21,20 0,11 9,20 20,21 11,0 20,-9 20,-20z"/>
  <path class="fil1" d="M830 1224c1,-10 -6,-18 -16,-19 -9,-1 -18,6 -18,16 -1,9 6,18 15,19 10,0 18,-7 19,-16z"/>
  <path class="fil1" d="M1006 1088c1,-8 -6,-16 -14,-17 -9,0 -16,6 -17,15 -1,8 5,16 14,17 9,0 16,-6 17,-15z"/>
  <path class="fil1" d="M1103 1100c-2,-9 -11,-14 -20,-11 -8,2 -13,11 -11,20 3,8 12,13 20,11 9,-3 14,-12 11,-20z"/>
  <path class="fil1" d="M881 1208c1,-7 -5,-14 -12,-15 -8,0 -15,5 -15,13 -1,7 5,14 12,15 8,0 14,-5 15,-13z"/>
  <path class="fil1" d="M998 1154c0,-6 -4,-11 -11,-12 -6,0 -11,5 -11,11 0,6 5,11 11,12 6,0 11,-5 11,-11z"/>
  <path class="fil1" d="M956 1158c0,-6 -5,-11 -11,-11 -6,-1 -11,4 -12,10 0,7 5,12 11,12 6,0 11,-5 12,-11z"/>
  <path class="fil1" d="M1150 1310c0,-6 -5,-11 -11,-12 -6,0 -12,5 -12,11 0,7 5,12 11,12 6,0 12,-5 12,-11z"/>
  <path class="fil1" d="M1244 1254c0,-6 -4,-12 -11,-12 -6,-1 -11,4 -12,10 0,6 4,12 11,12 6,1 11,-4 12,-10z"/>
  <path class="fil1" d="M885 1257c1,-11 -8,-20 -19,-21 -11,-1 -20,7 -21,18 -1,11 7,21 18,22 11,1 21,-7 22,-19z"/>
  <path class="fil1" d="M1069 1252c8,-6 9,-17 3,-25 -6,-7 -17,-9 -25,-3 -7,6 -9,17 -3,25 6,7 17,9 25,3z"/>
  <path class="fil1" d="M1046 1166c-2,-6 -8,-10 -14,-8 -6,2 -10,8 -8,14 1,6 8,10 14,8 6,-2 10,-8 8,-14z"/>
  <path class="fil1" d="M969 1296c-1,5 2,11 8,13 6,1 12,-3 13,-8 1,-6 -2,-12 -8,-13 -6,-2 -12,2 -13,8z"/>
  <path class="fil1" d="M1163 1268c3,6 10,7 15,4 5,-3 7,-9 4,-14 -3,-6 -9,-7 -15,-4 -5,3 -7,9 -4,14z"/>
  <path class="fil1" d="M945 1244c-2,9 3,18 12,20 9,2 18,-3 20,-12 3,-9 -3,-18 -12,-20 -9,-2 -18,3 -20,12z"/>
  <path class="fil1" d="M908 1172c0,-10 -8,-19 -18,-19 -11,-1 -19,8 -20,18 0,10 8,19 19,19 10,1 19,-8 19,-18z"/>
  <path class="fil1" d="M847 1282c1,-9 -6,-17 -16,-18 -9,-1 -17,6 -18,16 -1,9 6,17 15,18 10,1 18,-6 19,-16z"/>
  <path class="fil1" d="M939 1311c1,-11 -7,-21 -18,-22 -11,-1 -21,7 -22,18 -1,11 7,21 18,22 11,1 21,-7 22,-18z"/>
  <path class="fil1" d="M903 1463c7,-5 8,-14 4,-20 -5,-7 -14,-9 -20,-4 -7,5 -9,14 -4,20 4,7 13,8 20,4z"/>
  <path class="fil1" d="M914 1384c6,-5 8,-13 4,-20 -5,-6 -13,-8 -19,-3 -7,4 -8,13 -4,19 4,6 13,8 19,4z"/>
  <path class="fil1" d="M870 1338c7,-5 9,-16 4,-23 -5,-8 -15,-9 -23,-4 -7,5 -9,15 -4,22 5,8 15,10 23,5z"/>
  <path class="fil1" d="M1001 1428c7,-4 8,-13 4,-19 -5,-7 -13,-9 -20,-4 -6,4 -8,13 -4,20 5,6 14,8 20,3z"/>
  <path class="fil1" d="M1039 1283c7,-4 8,-13 4,-19 -5,-7 -13,-9 -20,-4 -6,4 -8,13 -4,20 5,6 14,8 20,3z"/>
  <path class="fil1" d="M1062 1408c7,-5 8,-14 3,-20 -5,-6 -14,-7 -20,-3 -6,5 -7,14 -2,20 4,6 13,7 19,3z"/>
  <path class="fil1" d="M1135 1204c1,-8 -4,-15 -12,-16 -8,-2 -16,4 -17,12 -1,8 4,15 12,17 8,1 16,-5 17,-13z"/>
  <path class="fil1" d="M1180 1147c1,-8 -4,-16 -12,-17 -8,-1 -16,4 -17,12 -1,8 4,16 12,17 8,1 16,-4 17,-12z"/>
  <path class="fil1" d="M1116 1259c1,-7 -4,-14 -11,-15 -8,-1 -15,4 -16,11 -1,8 4,15 11,16 8,1 15,-4 16,-12z"/>
  <path class="fil1" d="M984 1369c8,-5 10,-16 5,-23 -5,-8 -16,-10 -23,-5 -8,6 -10,16 -5,24 5,7 16,9 23,4z"/>
  <path class="fil1" d="M811 1428c6,-4 8,-12 4,-18 -4,-6 -12,-7 -18,-3 -6,4 -7,12 -3,17 4,6 12,8 17,4z"/>
  <path class="fil1" d="M1086 1334c6,-5 7,-12 2,-18 -4,-5 -11,-6 -17,-2 -5,4 -6,12 -2,17 4,6 12,7 17,3z"/>
  <path class="fil1" d="M1044 1315c0,-9 -7,-16 -16,-17 -9,0 -16,7 -16,16 -1,9 7,16 15,17 9,0 17,-7 17,-16z"/>
  <path class="fil1" d="M821 1376c6,-4 8,-13 3,-19 -4,-7 -12,-8 -19,-4 -6,4 -8,13 -3,19 4,7 13,8 19,4z"/>
  <path class="fil1" d="M799 1332c6,-4 8,-13 3,-20 -4,-6 -13,-8 -20,-4 -6,5 -8,14 -3,21 4,6 13,8 20,3z"/>
  <path class="fil1" d="M1079 1203c1,-8 -5,-16 -12,-17 -8,-1 -16,4 -17,12 -1,8 4,15 12,17 8,1 15,-4 17,-12z"/>
  <path class="fil1" d="M1172 1225c4,-6 2,-15 -4,-19 -6,-4 -14,-3 -19,4 -4,6 -2,14 4,18 6,5 14,3 19,-3z"/>
  <path class="fil1" d="M1093 1173c5,-8 3,-18 -5,-23 -7,-5 -18,-4 -23,4 -5,8 -3,18 4,23 8,5 18,4 24,-4z"/>
  <path class="fil1" d="M1139 1139c-3,-9 -12,-14 -21,-12 -9,3 -14,12 -11,21 2,9 12,14 20,11 9,-2 14,-11 12,-20z"/>
  <path class="fil1" d="M1308 1262c-8,-1 -15,5 -15,13 -1,7 5,14 13,15 7,1 14,-5 15,-13 1,-8 -5,-15 -13,-15z"/>
  <path class="fil1" d="M1348 1148c-7,-1 -14,5 -14,12 -1,8 4,14 12,15 7,0 14,-5 15,-13 0,-7 -5,-14 -13,-14z"/>
  <path class="fil1" d="M1510 831c-7,-1 -13,4 -14,11 -1,7 5,13 12,14 6,1 13,-5 13,-12 1,-7 -4,-13 -11,-13z"/>
  <path class="fil1" d="M1289 1134c-9,0 -17,6 -18,16 -1,9 6,17 15,17 9,1 17,-6 18,-15 1,-9 -6,-17 -15,-18z"/>
  <path class="fil1" d="M1232 836c-11,-1 -21,7 -22,18 -1,11 7,21 18,22 12,1 21,-7 22,-18 1,-11 -7,-21 -18,-22z"/>
  <path class="fil1" d="M1077 998c-9,-1 -16,5 -17,14 -1,9 6,16 14,17 9,1 17,-6 17,-14 1,-9 -5,-16 -14,-17z"/>
  <path class="fil1" d="M1159 936c-9,-1 -17,6 -17,14 -1,9 5,17 14,17 9,1 16,-5 17,-14 1,-9 -6,-16 -14,-17z"/>
  <path class="fil1" d="M1169 812c-8,0 -16,6 -17,15 0,8 6,16 15,16 8,1 16,-5 16,-14 1,-8 -5,-16 -14,-17z"/>
  <path class="fil1" d="M1025 1047c-7,0 -13,5 -14,12 0,6 5,12 12,13 7,1 13,-5 13,-11 1,-7 -4,-13 -11,-14z"/>
  <path class="fil1" d="M1210 987c-8,-1 -14,5 -15,12 0,7 5,14 12,14 8,1 14,-5 15,-12 0,-7 -5,-13 -12,-14z"/>
  <path class="fil1" d="M1140 904c-10,-1 -19,6 -20,16 -1,10 7,19 17,20 10,1 19,-7 20,-17 0,-10 -7,-18 -17,-19z"/>
  <path class="fil1" d="M1111 955c-10,-1 -19,7 -20,17 -1,11 7,20 17,20 10,1 19,-6 20,-17 1,-10 -7,-19 -17,-20z"/>
  <path class="fil1" d="M1278 823c-11,-1 -21,8 -22,19 -1,11 8,21 19,22 11,0 21,-8 22,-19 1,-11 -8,-21 -19,-22z"/>
  <path class="fil1" d="M1471 993c-6,0 -12,4 -12,10 -1,6 4,12 10,12 6,1 11,-4 12,-10 0,-6 -4,-11 -10,-12z"/>
  <path class="fil1" d="M1260 947c-6,-7 -16,-9 -24,-4 -8,5 -10,16 -4,23 5,8 16,10 23,5 8,-5 10,-16 5,-24z"/>
  <path class="fil1" d="M1342 834c-5,-8 -16,-10 -24,-5 -7,6 -9,16 -4,24 5,8 16,10 24,4 7,-5 9,-15 4,-23z"/>
  <path class="fil1" d="M1187 1044c-5,-8 -16,-10 -24,-5 -8,6 -10,16 -5,24 6,8 17,10 24,5 8,-6 10,-16 5,-24z"/>
  <path class="fil1" d="M1216 1031c-8,2 -12,10 -9,17 2,8 10,12 18,9 7,-2 11,-10 9,-17 -3,-8 -11,-12 -18,-9z"/>
  <path class="fil1" d="M151 575c-7,2 -10,9 -8,16 2,7 9,10 16,8 6,-2 10,-9 8,-16 -2,-7 -9,-10 -16,-8z"/>
  <path class="fil1" d="M416 516c-6,2 -10,9 -8,16 2,7 9,10 16,8 7,-2 10,-9 8,-16 -2,-6 -9,-10 -16,-8z"/>
  <path class="fil1" d="M1240 902c-5,-7 -15,-9 -23,-4 -7,5 -9,16 -4,23 5,8 16,10 23,4 8,-5 10,-15 4,-23z"/>
  <path class="fil1" d="M1213 946c-6,-10 -18,-12 -28,-6 -9,7 -11,19 -5,28 7,9 19,12 28,5 9,-6 12,-18 5,-27z"/>
  <path class="fil1" d="M1291 784c-6,-8 -16,-10 -24,-5 -8,6 -10,17 -5,25 5,8 16,10 24,4 8,-5 10,-16 5,-24z"/>
  <path class="fil1" d="M1320 727c-5,-8 -15,-10 -23,-4 -7,5 -9,15 -4,23 5,7 16,9 23,4 8,-5 10,-15 4,-23z"/>
  <path class="fil1" d="M1234 802c-5,-8 -17,-10 -25,-5 -8,6 -11,17 -5,26 6,8 17,10 25,4 9,-5 11,-17 5,-25z"/>
  <path class="fil1" d="M1181 753c-10,-1 -19,7 -20,17 -1,11 7,20 17,21 10,1 20,-7 20,-17 1,-11 -6,-20 -17,-21z"/>
  <path class="fil1" d="M1438 823c-4,-6 -13,-8 -19,-3 -7,4 -9,13 -4,19 4,7 13,8 20,4 6,-5 8,-13 3,-20z"/>
  <path class="fil1" d="M1263 996c-10,-1 -20,7 -21,18 -1,11 7,20 18,21 11,1 20,-7 21,-18 1,-11 -7,-20 -18,-21z"/>
  <path class="fil1" d="M1152 1083c-4,-7 -13,-8 -20,-4 -6,5 -8,14 -4,20 5,7 14,9 21,4 6,-4 8,-13 3,-20z"/>
  <path class="fil1" d="M1209 1130c-4,-6 -11,-7 -17,-3 -5,4 -7,11 -3,17 4,5 11,7 17,3 5,-4 7,-11 3,-17z"/>
  <path class="fil1" d="M1453 913c-4,-6 -11,-8 -17,-4 -6,4 -7,12 -3,18 3,5 11,7 17,3 6,-4 7,-12 3,-17z"/>
  <path class="fil1" d="M1380 1073c-4,-6 -12,-7 -17,-4 -6,4 -7,12 -3,18 3,5 11,7 17,3 5,-4 7,-12 3,-17z"/>
  <path class="fil1" d="M1326 1006c-5,-6 -13,-8 -20,-3 -6,4 -8,13 -3,19 4,6 13,8 19,3 6,-4 8,-13 4,-19z"/>
  <path class="fil1" d="M1399 938c-4,-5 -12,-7 -17,-3 -6,4 -8,12 -4,17 4,6 12,7 17,4 6,-4 7,-12 4,-18z"/>
  <path class="fil1" d="M1319 884c-4,-6 -12,-7 -18,-3 -5,3 -7,11 -3,17 4,6 12,7 17,3 6,-4 8,-12 4,-17z"/>
  <path class="fil1" d="M1331 938c-4,-6 -13,-8 -18,-3 -6,4 -8,12 -4,18 4,6 12,7 18,3 6,-4 8,-12 4,-18z"/>
  <path class="fil1" d="M1194 1094c-4,-7 -13,-8 -19,-4 -7,5 -8,13 -4,20 4,6 13,8 20,3 6,-4 8,-13 3,-19z"/>
  <path class="fil1" d="M1274 1076c-4,-7 -13,-8 -20,-4 -6,5 -8,13 -3,20 4,6 13,8 19,3 7,-4 8,-13 4,-19z"/>
  <path class="fil1" d="M1515 721c-4,-7 -13,-8 -20,-4 -7,5 -8,14 -4,20 5,7 14,9 21,4 6,-4 8,-13 3,-20z"/>
  <path class="fil1" d="M1374 877c-5,-6 -14,-8 -20,-4 -7,5 -8,14 -4,20 5,7 14,9 20,4 7,-4 8,-13 4,-20z"/>
  <path class="fil1" d="M1388 823c-5,-6 -13,-8 -20,-4 -6,5 -8,14 -4,20 5,7 14,8 20,4 7,-5 8,-13 4,-20z"/>
  <path class="fil1" d="M1341 786c-5,-6 -13,-8 -20,-3 -6,4 -8,13 -3,19 4,6 13,8 19,3 6,-4 8,-13 4,-19z"/>
  <path class="fil1" d="M1285 911c-4,-6 -13,-8 -20,-3 -6,4 -8,13 -3,20 4,6 13,8 20,4 6,-5 8,-14 3,-21z"/>
  <path class="fil1" d="M1390 743c-5,-7 -16,-9 -23,-4 -8,5 -10,16 -5,23 6,8 16,10 24,5 7,-5 9,-16 4,-24z"/>
  <path class="fil1" d="M1213 1176c-8,2 -13,11 -11,19 2,8 11,12 19,10 8,-2 13,-11 10,-19 -2,-8 -10,-12 -18,-10z"/>
  <path class="fil1" d="M746 324c-1,11 7,21 18,22 12,1 22,-8 23,-19 1,-11 -8,-21 -19,-22 -11,-1 -21,7 -22,19z"/>
  <path class="fil1" d="M594 357c0,10 8,18 18,18 9,1 18,-7 18,-17 0,-10 -8,-18 -18,-18 -9,-1 -18,7 -18,17z"/>
  <path class="fil1" d="M639 346c0,7 6,13 13,14 7,0 13,-6 13,-13 1,-7 -5,-13 -12,-14 -7,0 -13,6 -14,13z"/>
  <path class="fil1" d="M516 403c2,9 11,14 20,12 9,-3 14,-12 12,-21 -3,-9 -12,-14 -21,-11 -9,2 -14,11 -11,20z"/>
  <path class="fil1" d="M438 432c3,10 14,16 24,13 10,-3 16,-13 13,-23 -3,-11 -13,-17 -24,-14 -10,3 -16,14 -13,24z"/>
  <path class="fil1" d="M341 108c0,8 6,14 14,14 8,0 14,-6 14,-13 0,-8 -6,-14 -13,-14 -8,-1 -14,5 -15,13z"/>
  <path class="fil1" d="M511 289c0,11 9,20 20,20 11,1 20,-8 21,-19 0,-11 -9,-21 -20,-21 -11,0 -20,9 -21,20z"/>
  <path class="fil1" d="M661 310c0,10 7,18 16,19 10,1 18,-6 19,-16 0,-9 -7,-17 -16,-18 -10,-1 -18,6 -19,15z"/>
  <path class="fil1" d="M559 376c-1,9 6,16 14,17 9,1 16,-6 17,-14 1,-9 -6,-16 -14,-17 -9,-1 -16,6 -17,14z"/>
  <path class="fil1" d="M559 308c0,8 7,15 15,15 8,0 15,-6 16,-14 0,-9 -7,-16 -15,-16 -8,0 -15,6 -16,15z"/>
  <path class="fil1" d="M526 332c0,8 6,15 15,16 8,0 15,-7 15,-15 0,-8 -6,-15 -15,-15 -8,-1 -15,6 -15,14z"/>
  <path class="fil1" d="M740 237c0,9 6,17 15,18 9,0 16,-6 17,-15 1,-9 -6,-16 -15,-17 -8,-1 -16,6 -17,14z"/>
  <path class="fil1" d="M421 387c3,9 12,14 20,11 9,-2 14,-11 12,-20 -3,-9 -12,-14 -20,-11 -9,2 -14,11 -12,20z"/>
  <path class="fil1" d="M597 227c0,8 6,15 14,15 9,0 15,-6 15,-14 1,-8 -6,-15 -14,-15 -8,0 -15,6 -15,14z"/>
  <path class="fil1" d="M699 282c-1,10 7,18 17,19 10,1 19,-6 19,-16 1,-10 -6,-19 -16,-20 -10,-1 -19,6 -20,17z"/>
  <path class="fil1" d="M755 199c0,6 4,11 10,11 6,1 12,-4 12,-10 0,-6 -4,-11 -10,-11 -6,-1 -11,4 -12,10z"/>
  <path class="fil1" d="M375 177c0,6 5,11 11,11 6,1 11,-4 11,-11 1,-6 -4,-11 -10,-11 -7,0 -12,5 -12,11z"/>
  <path class="fil1" d="M281 233c-1,6 4,12 10,12 6,1 12,-4 12,-10 1,-6 -4,-12 -10,-12 -6,-1 -12,4 -12,10z"/>
  <path class="fil1" d="M640 229c-1,11 7,21 18,22 11,1 21,-7 22,-18 1,-11 -7,-21 -18,-22 -11,-1 -21,7 -22,18z"/>
  <path class="fil1" d="M456 235c-8,6 -9,17 -3,25 6,7 17,9 24,3 8,-6 9,-17 3,-25 -6,-8 -17,-9 -24,-3z"/>
  <path class="fil1" d="M483 300c1,6 8,9 14,7 6,-1 9,-8 8,-14 -2,-6 -9,-9 -15,-8 -6,2 -9,9 -7,15z"/>
  <path class="fil1" d="M556 191c1,-6 -2,-11 -8,-13 -6,-1 -12,2 -13,8 -2,6 2,12 8,13 5,2 11,-2 13,-8z"/>
  <path class="fil1" d="M605 264c1,-6 -3,-12 -8,-13 -6,-1 -12,2 -13,8 -2,6 2,12 8,13 5,2 11,-2 13,-8z"/>
  <path class="fil1" d="M616 117c2,-6 -2,-12 -8,-13 -6,-1 -11,2 -13,8 -1,6 2,12 8,13 6,2 12,-2 13,-8z"/>
  <path class="fil1" d="M361 218c-3,-5 -9,-7 -14,-4 -6,3 -7,10 -4,15 3,5 9,7 14,4 6,-3 7,-9 4,-15z"/>
  <path class="fil1" d="M580 243c2,-9 -4,-18 -13,-20 -9,-3 -18,3 -20,12 -2,9 4,18 13,20 9,2 18,-3 20,-12z"/>
  <path class="fil1" d="M691 220c-1,10 6,18 15,19 10,1 18,-6 19,-16 1,-9 -6,-17 -16,-18 -9,-1 -18,6 -18,15z"/>
  <path class="fil1" d="M586 176c-1,11 7,21 18,22 11,1 21,-7 22,-18 0,-11 -8,-21 -19,-22 -11,-1 -20,7 -21,18z"/>
  <path class="fil1" d="M624 3c-7,4 -8,13 -4,20 5,6 14,8 20,3 7,-4 9,-13 4,-20 -5,-6 -13,-8 -20,-3z"/>
  <path class="fil1" d="M671 93c-7,4 -8,13 -4,19 4,6 13,8 19,4 7,-5 8,-13 4,-19 -4,-7 -13,-8 -19,-4z"/>
  <path class="fil1" d="M655 149c-8,5 -10,15 -5,23 6,7 16,9 23,4 8,-5 10,-15 4,-23 -5,-7 -15,-9 -22,-4z"/>
  <path class="fil1" d="M555 57c-6,4 -8,13 -3,20 4,6 13,8 20,3 6,-4 8,-13 3,-19 -4,-7 -13,-8 -20,-4z"/>
  <path class="fil1" d="M486 203c-7,5 -9,14 -4,20 4,7 13,8 20,4 6,-4 8,-13 3,-20 -4,-6 -13,-8 -19,-4z"/>
  <path class="fil1" d="M390 282c-1,8 4,16 12,17 8,1 15,-4 17,-12 1,-8 -5,-16 -13,-17 -8,-1 -15,4 -16,12z"/>
  <path class="fil1" d="M345 340c-1,8 4,16 12,17 8,1 16,-4 17,-12 1,-8 -5,-16 -12,-17 -8,-1 -16,4 -17,12z"/>
  <path class="fil1" d="M409 227c-1,8 4,15 11,16 8,1 15,-4 16,-11 1,-8 -4,-15 -12,-16 -7,-1 -14,4 -15,11z"/>
  <path class="fil1" d="M540 118c-7,5 -9,15 -4,23 5,8 15,10 23,4 8,-5 10,-15 4,-23 -5,-8 -15,-9 -23,-4z"/>
  <path class="fil1" d="M723 31c-6,4 -7,12 -4,18 4,6 12,7 18,3 6,-4 7,-12 3,-17 -4,-6 -11,-8 -17,-4z"/>
  <path class="fil1" d="M438 153c-5,4 -6,12 -2,17 4,6 12,7 17,3 6,-5 7,-12 3,-18 -5,-5 -12,-6 -18,-2z"/>
  <path class="fil1" d="M481 172c-1,9 6,16 15,16 9,1 17,-6 17,-15 0,-9 -7,-17 -16,-17 -9,0 -16,7 -16,16z"/>
  <path class="fil1" d="M741 97c-6,4 -8,13 -4,19 5,7 13,8 19,4 7,-5 8,-13 4,-19 -4,-7 -13,-8 -19,-4z"/>
  <path class="fil1" d="M726 154c-7,5 -8,14 -4,21 5,6 14,8 20,3 7,-4 9,-13 4,-20 -4,-6 -13,-8 -20,-4z"/>
  <path class="fil1" d="M353 262c-4,6 -3,14 3,19 7,4 15,2 19,-4 5,-6 3,-14 -3,-19 -6,-4 -15,-2 -19,4z"/>
  <path class="fil1" d="M425 310c-5,7 -3,18 4,23 8,5 18,3 23,-4 6,-8 4,-18 -4,-23 -7,-6 -18,-4 -23,4z"/>
  <path class="fil1" d="M386 348c2,9 12,14 20,12 9,-3 14,-12 12,-21 -3,-9 -12,-14 -21,-12 -9,3 -14,12 -11,21z"/>
  <path class="fil1" d="M709 326c-6,1 -10,8 -8,13 2,6 8,10 14,8 6,-2 9,-8 7,-14 -1,-6 -8,-9 -13,-7z"/>
  <path class="fil1" d="M217 225c8,1 14,-5 15,-13 1,-8 -5,-15 -13,-15 -8,-1 -15,5 -15,13 -1,8 5,14 13,15z"/>
  <path class="fil1" d="M176 339c8,1 14,-5 15,-12 1,-8 -5,-14 -12,-15 -8,-1 -14,5 -15,12 0,8 5,14 12,15z"/>
  <path class="fil1" d="M12 643c7,0 13,-5 13,-12 1,-7 -4,-13 -11,-13 -7,-1 -13,4 -14,11 -1,7 5,13 12,14z"/>
  <path class="fil1" d="M236 352c9,1 17,-6 18,-15 1,-9 -6,-17 -15,-18 -9,0 -17,6 -18,15 -1,10 6,17 15,18z"/>
  <path class="fil1" d="M456 484c9,0 17,-6 17,-15 1,-8 -5,-16 -14,-17 -9,0 -16,6 -17,15 -1,8 6,16 14,17z"/>
  <path class="fil1" d="M371 540c9,1 16,-6 17,-14 1,-9 -6,-17 -14,-17 -9,-1 -17,5 -17,14 -1,9 5,16 14,17z"/>
  <path class="fil1" d="M361 675c8,1 16,-5 17,-14 0,-9 -6,-16 -15,-17 -8,-1 -16,6 -16,14 -1,9 5,16 14,17z"/>
  <path class="fil1" d="M500 440c7,0 13,-5 13,-12 1,-7 -4,-13 -11,-13 -7,-1 -13,4 -14,11 0,7 5,13 12,14z"/>
  <path class="fil1" d="M389 583c10,1 19,-7 20,-17 1,-10 -7,-18 -17,-19 -10,-1 -19,6 -20,16 0,10 7,19 17,20z"/>
  <path class="fil1" d="M402 451c10,1 19,-7 20,-17 1,-10 -7,-19 -17,-20 -10,-1 -19,7 -20,17 -1,10 7,19 17,20z"/>
  <path class="fil1" d="M273 644c11,1 21,-8 21,-19 1,-11 -7,-21 -18,-22 -11,-1 -21,8 -22,19 -1,11 7,21 19,22z"/>
  <path class="fil1" d="M50 440c6,0 11,-4 11,-10 1,-7 -4,-12 -10,-12 -6,-1 -11,4 -12,10 0,6 4,11 11,12z"/>
  <path class="fil1" d="M265 539c5,8 16,10 24,5 7,-5 9,-16 4,-24 -5,-7 -16,-9 -24,-4 -7,5 -9,16 -4,23z"/>
  <path class="fil1" d="M328 489c6,8 16,10 24,5 8,-6 10,-16 4,-24 -5,-8 -15,-10 -23,-4 -8,5 -10,15 -5,23z"/>
  <path class="fil1" d="M328 437c6,7 16,9 24,4 8,-5 10,-16 5,-24 -6,-8 -16,-10 -24,-4 -8,5 -10,16 -5,24z"/>
  <path class="fil1" d="M274 580c5,8 15,9 23,4 7,-5 9,-15 4,-23 -5,-7 -16,-9 -23,-4 -8,5 -10,15 -4,23z"/>
  <path class="fil1" d="M311 541c7,9 19,12 28,5 9,-6 12,-18 5,-27 -6,-10 -18,-12 -27,-6 -10,7 -12,19 -6,28z"/>
  <path class="fil1" d="M229 685c6,8 17,10 25,5 8,-6 10,-17 4,-25 -5,-8 -16,-10 -24,-4 -8,5 -10,16 -5,24z"/>
  <path class="fil1" d="M293 669c6,9 17,11 25,5 9,-6 11,-17 5,-25 -6,-9 -17,-11 -25,-5 -9,6 -11,17 -5,25z"/>
  <path class="fil1" d="M115 653c5,6 13,8 20,3 6,-4 8,-13 4,-19 -5,-7 -14,-8 -20,-4 -7,5 -8,13 -4,20z"/>
  <path class="fil1" d="M261 491c11,0 20,-7 21,-18 1,-11 -7,-20 -17,-21 -11,-1 -20,7 -21,18 -1,10 7,20 17,21z"/>
  <path class="fil1" d="M372 404c5,6 14,8 20,4 7,-5 9,-14 4,-21 -4,-6 -13,-8 -20,-3 -7,4 -8,13 -4,20z"/>
  <path class="fil1" d="M53 558c4,6 11,7 17,3 6,-4 7,-11 3,-17 -4,-6 -11,-7 -17,-3 -6,4 -7,11 -3,17z"/>
  <path class="fil1" d="M145 414c4,6 11,7 17,3 6,-4 7,-11 3,-17 -4,-6 -11,-7 -17,-3 -6,4 -7,11 -3,17z"/>
  <path class="fil1" d="M132 531c4,6 12,7 17,4 6,-4 7,-12 4,-18 -4,-5 -12,-7 -17,-3 -6,4 -7,12 -4,17z"/>
  <path class="fil1" d="M206 603c4,6 12,7 17,3 6,-4 7,-11 4,-17 -4,-6 -12,-7 -18,-3 -6,3 -7,11 -3,17z"/>
  <path class="fil1" d="M194 549c4,6 12,7 18,3 6,-4 8,-12 4,-18 -5,-6 -13,-8 -19,-4 -6,5 -7,13 -3,19z"/>
  <path class="fil1" d="M251 411c4,6 13,8 19,4 7,-5 8,-14 4,-20 -5,-6 -13,-8 -20,-4 -6,5 -8,14 -3,20z"/>
  <path class="fil1" d="M70 777c4,7 13,8 20,4 7,-5 8,-14 4,-21 -5,-6 -14,-8 -21,-3 -6,4 -8,13 -3,20z"/>
  <path class="fil1" d="M175 708c5,7 16,9 23,4 8,-5 10,-16 5,-23 -6,-8 -16,-10 -24,-5 -8,6 -10,16 -4,24z"/>
  <path class="fil1" d="M369 620c6,4 13,3 17,-3 4,-5 3,-13 -3,-17 -5,-3 -13,-2 -17,4 -4,5 -2,13 3,16z"/>
  <path class="fil1" d="M312 311c8,-2 13,-11 11,-19 -3,-8 -11,-13 -19,-10 -8,2 -13,10 -11,18 3,9 11,13 19,11z"/>
  <path class="fil1" d="M934 354c1,10 -7,18 -17,19 -10,0 -18,-8 -18,-18 -1,-10 7,-18 17,-18 10,0 18,7 18,17z"/>
  <path class="fil1" d="M885 346c0,7 -5,13 -12,14 -8,0 -14,-6 -14,-13 0,-7 6,-13 13,-14 7,0 13,6 13,13z"/>
  <path class="fil1" d="M1087 432c-3,10 -14,16 -24,13 -11,-3 -17,-13 -14,-23 3,-11 14,-17 24,-14 10,3 17,14 14,24z"/>
  <path class="fil1" d="M1183 108c1,8 -6,14 -13,14 -8,0 -14,-6 -14,-13 -1,-8 5,-14 13,-14 8,-1 14,5 14,13z"/>
  <path class="fil1" d="M1013 320c1,11 -8,21 -19,21 -11,0 -21,-9 -21,-20 0,-11 8,-20 20,-20 11,-1 20,8 20,19z"/>
  <path class="fil1" d="M977 381c1,8 -6,16 -14,17 -9,0 -17,-6 -17,-15 -1,-8 5,-16 14,-17 9,0 16,6 17,15z"/>
  <path class="fil1" d="M834 244c1,9 -5,16 -14,17 -9,1 -16,-6 -17,-15 -1,-8 6,-16 14,-17 9,0 17,6 17,15z"/>
  <path class="fil1" d="M1103 387c-2,9 -11,14 -20,11 -8,-2 -13,-11 -11,-20 3,-9 12,-14 20,-11 9,2 14,11 11,20z"/>
  <path class="fil1" d="M323 366c0,8 -7,15 -15,15 -8,0 -14,-6 -15,-14 0,-8 6,-15 15,-15 8,-1 14,6 15,14z"/>
  <path class="fil1" d="M908 265c1,8 -5,14 -12,15 -8,1 -14,-5 -15,-12 0,-8 5,-15 13,-15 7,-1 14,5 14,12z"/>
  <path class="fil1" d="M789 271c1,6 -4,11 -10,12 -6,0 -11,-4 -12,-10 0,-6 4,-11 10,-12 6,0 12,4 12,10z"/>
  <path class="fil1" d="M682 268c0,6 -4,11 -10,12 -6,0 -12,-4 -12,-10 -1,-6 4,-11 10,-12 6,0 11,4 12,10z"/>
  <path class="fil1" d="M214 452c0,6 -5,11 -11,11 -6,1 -11,-4 -11,-10 -1,-7 4,-12 10,-12 7,0 12,5 12,11z"/>
  <path class="fil1" d="M495 388c0,7 -5,12 -11,12 -6,0 -11,-5 -11,-11 0,-6 5,-11 11,-11 6,-1 11,4 11,10z"/>
  <path class="fil1" d="M961 336c0,6 -4,11 -11,11 -6,0 -11,-5 -11,-11 0,-6 5,-11 11,-11 6,0 11,4 11,11z"/>
  <path class="fil1" d="M1012 280c1,6 -4,11 -10,11 -6,0 -12,-5 -12,-11 0,-6 5,-11 11,-11 6,0 11,5 11,11z"/>
  <path class="fil1" d="M1150 177c0,6 -5,11 -11,11 -6,1 -12,-4 -12,-11 0,-6 5,-11 11,-11 6,0 12,5 12,11z"/>
  <path class="fil1" d="M1244 233c0,6 -4,12 -11,12 -6,1 -11,-4 -12,-10 0,-6 4,-12 11,-12 6,-1 11,4 12,10z"/>
  <path class="fil1" d="M885 229c1,11 -8,21 -19,22 -11,1 -20,-7 -21,-18 -1,-11 7,-21 18,-22 11,-1 21,7 22,18z"/>
  <path class="fil1" d="M1069 235c8,6 9,17 3,25 -6,7 -17,9 -25,3 -7,-6 -9,-17 -3,-25 6,-8 17,-9 25,-3z"/>
  <path class="fil1" d="M1052 309c-2,6 -8,10 -15,8 -6,-2 -9,-8 -7,-14 1,-6 8,-10 14,-8 6,2 9,8 8,14z"/>
  <path class="fil1" d="M1163 218c3,-5 10,-7 15,-4 5,3 7,10 4,15 -3,5 -9,7 -15,4 -5,-3 -7,-9 -4,-15z"/>
  <path class="fil1" d="M945 232c-2,-9 3,-18 12,-21 9,-2 18,4 20,13 3,9 -3,18 -12,20 -9,2 -18,-3 -20,-12z"/>
  <path class="fil1" d="M908 307c0,11 -8,19 -18,20 -11,0 -19,-8 -20,-19 0,-10 8,-19 19,-19 10,0 19,8 19,18z"/>
  <path class="fil1" d="M847 204c1,10 -6,18 -16,19 -9,1 -17,-6 -18,-16 -1,-9 6,-17 15,-18 10,-1 18,6 19,15z"/>
  <path class="fil1" d="M939 176c1,11 -7,21 -18,22 -11,1 -21,-7 -22,-18 -1,-11 7,-21 18,-22 11,-1 21,7 22,18z"/>
  <path class="fil1" d="M893 30c7,4 9,13 4,20 -4,6 -13,8 -20,4 -7,-5 -8,-14 -4,-21 5,-6 14,-8 20,-3z"/>
  <path class="fil1" d="M914 103c6,5 8,13 4,19 -5,7 -13,8 -19,4 -7,-4 -8,-13 -4,-19 4,-6 13,-8 19,-4z"/>
  <path class="fil1" d="M870 149c7,5 9,15 4,23 -5,7 -15,9 -23,4 -7,-5 -9,-15 -4,-23 5,-7 15,-9 23,-4z"/>
  <path class="fil1" d="M1001 58c7,5 8,14 4,20 -5,7 -13,8 -20,4 -6,-5 -8,-13 -4,-20 5,-6 14,-8 20,-4z"/>
  <path class="fil1" d="M1039 203c7,5 8,14 4,20 -5,7 -13,8 -20,4 -6,-4 -8,-13 -4,-20 5,-6 14,-8 20,-4z"/>
  <path class="fil1" d="M1062 79c7,5 8,14 3,20 -5,6 -14,7 -20,2 -6,-4 -7,-13 -2,-19 4,-7 13,-8 19,-3z"/>
  <path class="fil1" d="M1135 282c1,8 -4,16 -12,17 -8,1 -16,-4 -17,-12 -1,-8 4,-16 12,-17 8,-1 16,4 17,12z"/>
  <path class="fil1" d="M1180 340c1,8 -4,16 -12,17 -8,1 -16,-4 -17,-12 -1,-8 4,-16 12,-17 8,-1 16,4 17,12z"/>
  <path class="fil1" d="M1116 227c1,8 -4,15 -11,16 -8,1 -15,-4 -16,-11 -1,-8 4,-15 11,-16 8,-1 15,4 16,11z"/>
  <path class="fil1" d="M984 118c8,5 10,15 5,23 -5,8 -16,10 -23,4 -8,-5 -10,-15 -5,-23 5,-8 16,-9 23,-4z"/>
  <path class="fil1" d="M796 53c6,4 8,12 4,18 -4,5 -12,7 -18,3 -6,-4 -7,-12 -3,-18 4,-5 12,-7 17,-3z"/>
  <path class="fil1" d="M1086 153c6,4 7,12 2,17 -4,6 -11,7 -17,3 -5,-5 -6,-12 -2,-18 4,-5 12,-6 17,-2z"/>
  <path class="fil1" d="M1044 172c0,9 -7,16 -16,16 -9,1 -16,-6 -16,-15 -1,-9 7,-17 15,-17 9,0 17,7 17,16z"/>
  <path class="fil1" d="M829 111c6,4 8,13 4,19 -5,6 -13,8 -20,4 -6,-5 -8,-13 -3,-20 4,-6 13,-8 19,-3z"/>
  <path class="fil1" d="M799 154c6,5 8,14 3,21 -4,6 -13,8 -20,3 -6,-4 -8,-13 -3,-20 4,-6 13,-8 20,-4z"/>
  <path class="fil1" d="M1093 294c1,8 -4,15 -12,17 -8,1 -15,-4 -16,-12 -2,-8 4,-16 12,-17 7,-1 15,4 16,12z"/>
  <path class="fil1" d="M1172 262c4,6 2,14 -4,19 -6,4 -14,2 -19,-4 -4,-6 -2,-14 4,-19 6,-4 14,-2 19,4z"/>
  <path class="fil1" d="M1085 334c5,8 4,18 -4,23 -8,5 -18,4 -23,-4 -6,-8 -4,-18 4,-23 7,-5 18,-4 23,4z"/>
  <path class="fil1" d="M1139 348c-3,9 -12,14 -21,12 -9,-3 -14,-12 -11,-21 2,-9 12,-14 20,-12 9,3 14,12 12,21z"/>
  <path class="fil1" d="M827 328c6,2 9,8 8,14 -2,6 -8,9 -14,8 -6,-2 -10,-8 -8,-14 2,-6 8,-9 14,-8z"/>
  <path class="fil1" d="M1163 498c-9,1 -18,-6 -19,-16 -1,-10 7,-18 16,-19 10,-1 19,6 20,16 0,10 -7,19 -17,19z"/>
  <path class="fil1" d="M1308 225c-8,1 -15,-5 -15,-13 -1,-8 5,-15 13,-15 7,-1 14,5 15,13 1,8 -5,14 -13,15z"/>
  <path class="fil1" d="M1348 339c-7,1 -14,-5 -14,-12 -1,-8 4,-14 12,-15 7,-1 14,5 15,12 0,8 -5,14 -13,15z"/>
  <path class="fil1" d="M1526 656c-7,0 -13,-5 -14,-12 -1,-7 5,-13 12,-14 7,0 13,5 13,12 1,7 -4,13 -11,14z"/>
  <path class="fil1" d="M1289 352c-9,1 -17,-6 -18,-15 -1,-9 6,-17 15,-18 9,0 17,6 18,15 1,10 -6,17 -15,18z"/>
  <path class="fil1" d="M1186 616c-11,1 -21,-7 -22,-18 -1,-12 7,-21 19,-22 11,-1 20,7 21,18 1,11 -7,21 -18,22z"/>
  <path class="fil1" d="M1077 489c-9,1 -16,-6 -17,-14 -1,-9 6,-17 14,-17 9,-1 17,5 17,14 1,9 -5,16 -14,17z"/>
  <path class="fil1" d="M1159 551c-9,1 -17,-6 -17,-14 -1,-9 5,-17 14,-18 9,0 16,6 17,15 1,9 -6,16 -14,17z"/>
  <path class="fil1" d="M1170 691c-8,0 -16,-6 -17,-15 0,-8 6,-16 14,-16 9,-1 16,5 17,14 1,8 -5,16 -14,17z"/>
  <path class="fil1" d="M1025 440c-7,0 -13,-5 -14,-12 0,-7 5,-13 12,-13 7,-1 13,4 13,11 1,7 -4,13 -11,14z"/>
  <path class="fil1" d="M1210 500c-8,0 -14,-5 -15,-12 0,-7 5,-14 12,-14 8,-1 14,4 15,12 0,7 -5,13 -12,14z"/>
  <path class="fil1" d="M1136 583c-10,1 -19,-7 -20,-17 -1,-10 7,-18 17,-19 10,-1 18,6 19,16 1,10 -6,19 -16,20z"/>
  <path class="fil1" d="M1126 524c-10,1 -19,-6 -20,-17 -1,-10 7,-19 17,-20 10,-1 19,7 20,17 1,10 -7,19 -17,20z"/>
  <path class="fil1" d="M1272 651c-11,1 -21,-8 -22,-19 -1,-11 8,-21 19,-21 11,-1 21,7 22,18 1,11 -8,21 -19,22z"/>
  <path class="fil1" d="M1490 485c-6,0 -12,-4 -12,-11 -1,-6 4,-11 10,-11 6,-1 11,4 12,10 0,6 -4,11 -10,12z"/>
  <path class="fil1" d="M1285 529c-5,8 -16,10 -24,4 -8,-5 -10,-15 -4,-23 5,-8 16,-10 23,-5 8,6 10,16 5,24z"/>
  <path class="fil1" d="M1188 443c-5,8 -16,10 -24,5 -7,-6 -9,-17 -4,-24 5,-8 16,-10 24,-5 8,6 10,16 4,24z"/>
  <path class="fil1" d="M1216 456c-8,-2 -12,-10 -9,-18 2,-7 10,-11 18,-9 7,3 11,11 9,18 -3,8 -11,12 -18,9z"/>
  <path class="fil1" d="M1211 415c-7,-2 -11,-9 -8,-16 2,-7 9,-10 16,-8 6,2 10,9 8,16 -2,7 -10,10 -16,8z"/>
  <path class="fil1" d="M1246 574c-6,8 -16,10 -23,5 -8,-6 -10,-16 -5,-23 5,-8 16,-10 23,-5 8,5 10,16 5,23z"/>
  <path class="fil1" d="M1213 541c-6,9 -18,12 -28,5 -9,-6 -11,-18 -5,-27 7,-10 19,-12 28,-6 9,7 12,19 5,28z"/>
  <path class="fil1" d="M1295 685c-5,8 -16,10 -24,5 -8,-6 -10,-17 -4,-25 5,-8 16,-10 24,-4 8,5 10,16 4,24z"/>
  <path class="fil1" d="M1242 631c-6,8 -17,10 -25,4 -9,-5 -11,-17 -5,-25 6,-8 17,-10 25,-5 8,6 11,17 5,26z"/>
  <path class="fil1" d="M1255 762c-10,1 -19,-6 -20,-17 -1,-10 7,-19 17,-20 11,-1 20,7 21,17 0,11 -7,20 -18,20z"/>
  <path class="fil1" d="M1409 653c-4,6 -13,8 -19,3 -7,-4 -8,-13 -4,-19 5,-7 13,-8 20,-4 6,5 8,13 3,20z"/>
  <path class="fil1" d="M1263 491c-10,0 -20,-7 -21,-18 -1,-11 7,-20 18,-21 11,-1 20,7 21,18 1,10 -7,20 -18,21z"/>
  <path class="fil1" d="M1152 404c-4,6 -13,8 -20,4 -6,-5 -8,-14 -4,-21 5,-6 14,-8 21,-3 6,4 8,13 3,20z"/>
  <path class="fil1" d="M1453 574c-4,6 -11,7 -17,3 -6,-4 -7,-11 -3,-17 3,-6 11,-7 17,-3 6,4 7,12 3,17z"/>
  <path class="fil1" d="M1411 434c-4,5 -12,7 -17,3 -6,-4 -7,-12 -4,-17 4,-6 12,-7 18,-3 5,3 7,11 3,17z"/>
  <path class="fil1" d="M1326 481c-5,6 -13,8 -20,3 -6,-4 -8,-13 -3,-19 4,-6 13,-8 19,-4 6,5 8,13 4,20z"/>
  <path class="fil1" d="M1399 548c-4,6 -12,7 -17,3 -6,-3 -8,-11 -4,-17 4,-5 12,-7 17,-3 6,4 7,12 4,17z"/>
  <path class="fil1" d="M1319 603c-4,6 -12,7 -18,3 -5,-4 -7,-11 -3,-17 4,-6 12,-7 17,-3 6,3 8,11 4,17z"/>
  <path class="fil1" d="M1331 549c-4,6 -13,7 -18,3 -6,-4 -8,-12 -4,-18 4,-6 12,-8 18,-4 6,5 8,13 4,19z"/>
  <path class="fil1" d="M1194 393c-4,6 -13,8 -19,4 -7,-5 -8,-14 -4,-20 4,-6 13,-8 20,-4 6,5 8,14 3,20z"/>
  <path class="fil1" d="M1274 411c-4,6 -13,8 -20,4 -6,-5 -8,-14 -3,-20 4,-6 13,-8 19,-4 7,5 8,14 4,20z"/>
  <path class="fil1" d="M1439 745c-5,6 -14,8 -21,3 -6,-4 -8,-13 -3,-20 4,-7 13,-8 20,-4 6,5 8,14 4,21z"/>
  <path class="fil1" d="M1374 610c-5,6 -14,8 -20,3 -7,-4 -8,-13 -4,-20 5,-6 14,-8 20,-3 7,4 8,13 4,20z"/>
  <path class="fil1" d="M1349 657c-4,6 -13,8 -20,4 -6,-5 -8,-14 -3,-20 4,-6 13,-8 20,-4 6,5 8,14 3,20z"/>
  <path class="fil1" d="M1335 701c-5,6 -13,8 -20,3 -6,-4 -8,-13 -3,-19 4,-6 13,-8 19,-4 7,5 8,13 4,20z"/>
  <path class="fil1" d="M1186 726c-5,6 -13,8 -20,4 -6,-5 -8,-13 -3,-20 4,-6 13,-8 19,-3 6,4 8,13 4,19z"/>
  <path class="fil1" d="M1398 710c-6,7 -16,9 -24,4 -8,-5 -10,-16 -4,-23 5,-8 16,-10 23,-5 8,5 10,16 5,24z"/>
  <path class="fil1" d="M1163 630c-6,4 -13,3 -17,-3 -4,-5 -3,-13 3,-17 5,-3 13,-2 17,3 4,6 2,14 -3,17z"/>
  <path class="fil1" d="M1213 311c-8,-2 -13,-11 -11,-19 2,-8 11,-13 19,-10 8,2 13,10 10,18 -2,9 -10,13 -18,11z"/>
  <path class="fil1" d="M387 487c0,-12 10,-22 22,-22 12,0 22,10 22,22 0,12 -10,21 -22,21 -12,0 -22,-9 -22,-21z"/>
  <path class="fil1" d="M319 587c0,-12 9,-22 21,-22 12,0 22,10 22,22 0,12 -10,22 -22,22 -12,0 -21,-10 -21,-22z"/>
  <path class="fil1" d="M338 849c0,-12 9,-22 21,-22 12,0 22,10 22,22 0,12 -10,22 -22,22 -12,0 -21,-10 -21,-22z"/>
  <path class="fil1" d="M257 724c0,-13 10,-22 22,-22 12,0 22,9 22,22 0,12 -10,21 -22,21 -12,0 -22,-9 -22,-21z"/>
  <path class="fil1" d="M351 967c0,-12 9,-21 21,-21 12,0 22,9 22,21 0,12 -10,22 -22,22 -12,0 -21,-10 -21,-22z"/>
  <path class="fil1" d="M421 1114c0,-12 10,-22 22,-22 12,0 22,10 22,22 0,12 -10,21 -22,21 -12,0 -22,-9 -22,-21z"/>
  <path class="fil1" d="M538 1106c0,-12 9,-22 21,-22 12,0 22,10 22,22 0,12 -10,21 -22,21 -12,0 -21,-9 -21,-21z"/>
  <path class="fil1" d="M608 1198c0,-12 10,-22 22,-22 12,0 22,10 22,22 0,12 -10,21 -22,21 -12,0 -22,-9 -22,-21z"/>
  <path class="fil1" d="M791 1158c0,-12 10,-22 22,-22 12,0 22,10 22,22 0,12 -10,21 -22,21 -12,0 -22,-9 -22,-21z"/>
  <path class="fil1" d="M928 1201c0,-12 10,-22 22,-22 12,0 22,10 22,22 0,12 -10,21 -22,21 -12,0 -22,-9 -22,-21z"/>
  <path class="fil1" d="M1002 1116c0,-12 10,-22 22,-22 12,0 22,10 22,22 0,12 -10,22 -22,22 -12,0 -22,-10 -22,-22z"/>
  <path class="fil1" d="M1107 1030c0,-12 9,-22 21,-22 12,0 22,10 22,22 0,12 -10,22 -22,22 -12,0 -21,-10 -21,-22z"/>
  <path class="fil1" d="M1155 885c0,-12 10,-21 22,-21 12,0 22,9 22,21 0,12 -10,22 -22,22 -12,0 -22,-10 -22,-22z"/>
  <path class="fil1" d="M466 343c0,-12 10,-21 22,-21 12,0 21,9 21,21 0,13 -9,22 -21,22 -12,0 -22,-9 -22,-22z"/>
  <path class="fil1" d="M608 299c0,-12 10,-21 22,-21 12,0 22,9 22,21 0,12 -10,22 -22,22 -12,0 -22,-10 -22,-22z"/>
  <path class="fil1" d="M807 296c0,-12 10,-21 22,-21 12,0 22,9 22,21 0,12 -10,22 -22,22 -12,0 -22,-10 -22,-22z"/>
  <path class="fil1" d="M928 283c0,-12 10,-22 22,-22 12,0 22,10 22,22 0,12 -10,22 -22,22 -12,0 -22,-10 -22,-22z"/>
  <path class="fil1" d="M996 379c0,-12 10,-22 22,-22 12,0 22,10 22,22 0,12 -10,22 -22,22 -12,0 -22,-10 -22,-22z"/>
  <path class="fil1" d="M1099 446c0,-12 9,-22 21,-22 12,0 22,10 22,22 0,12 -10,22 -22,22 -12,0 -21,-10 -21,-22z"/>
  <path class="fil1" d="M1205 679c0,-12 10,-22 22,-22 12,0 22,10 22,22 0,12 -10,22 -22,22 -12,0 -22,-10 -22,-22z"/>
 </g>
</svg>
